<?xml version="1.0" encoding="UTF-8" standalone="no"?><!DOCTYPE svg PUBLIC "-//W3C//DTD SVG 1.1//EN" "http://www.w3.org/Graphics/SVG/1.1/DTD/svg11.dtd"><svg width="4000px" height="2500px" version="1.1" xmlns="http://www.w3.org/2000/svg" xmlns:xlink="http://www.w3.org/1999/xlink" xml:space="preserve" xmlns:serif="http://www.serif.com/" style="fill-rule:evenodd;clip-rule:evenodd;stroke-linejoin:round;stroke-miterlimit:2;"><g id="c99"></g><g transform="matrix(2.2689,0,0,2.2689,-4581.63,-2928.61)"><g id="c85"><g><g transform="matrix(0.441052,0,0,0.441052,2020.05,1290.7)"><rect x="111.817" y="218.725" width="3805.79" height="2107.56" style="fill:rgb(174,211,240);"/></g><path d="M2377.3,2316.71C2379.64,2311.33 2382.13,2306.09 2384.8,2301C2430.93,2212.82 2550.23,2146.78 2640.74,2116.17C2732.03,2085.3 2857.92,2079.42 2951.22,2103.61C3019.15,2121.22 3088.91,2131.97 3156.35,2150.87C3301.94,2191.68 3485.19,2276.45 3639.2,2232.12C3674.81,2221.87 3715.54,2205.74 3747.92,2183.79L3747.92,2316.71L2377.3,2316.71ZM3747.92,1581.06C3697.84,1540.21 3635.46,1523.62 3572.34,1511.82C3276.96,1456.58 3070.39,1572.75 2786.14,1605.58C2563.89,1631.24 2347.66,1539.08 2189.12,1387.17L3747.92,1387.17L3747.92,1581.06Z" style="fill:rgb(195,220,243);"/></g><g transform="matrix(0.441052,0,0,0.441052,2020.05,1290.7)"><rect x="111.817" y="218.725" width="3805.79" height="2107.56" style="fill:none;"/><clipPath id="_clip1"><rect x="111.817" y="218.725" width="3805.79" height="2107.56"/></clipPath><g clip-path="url(#_clip1)"><g transform="matrix(0.999297,0,0,0.999297,-1.66913,0.144597)"><path d="M73.274,1151.08L4036.52,1339.84L3973.78,1516.22L75.785,1242.93L73.274,1151.08Z" style="fill:url(#_Linear2);"/></g><g transform="matrix(0.999297,0,0,0.999297,-1.66913,0.144597)"><path d="M7.409,1148.43L4069.28,1452.76L4008.39,2394.69C4008.39,2394.69 132.445,2394.03 107.065,2377.65C81.686,2361.27 7.409,1148.43 7.409,1148.43Z" style="fill:rgb(200,225,245);"/></g><g transform="matrix(2.27925,-0.350809,0.26445,1.71816,-2777.39,-1225.03)"><path d="M968.432,1662.22L1034.26,1591.1L1040.62,1593.07L974.788,1664.19L1043.18,1685.34L1109.01,1614.22L1115.37,1616.19L1049.54,1687.31L1117.93,1708.47L1183.76,1637.34L1190.12,1639.31L1124.29,1710.43L1192.68,1731.59L1258.51,1660.46L1264.87,1662.43L1199.04,1733.55L1267.43,1754.71L1333.26,1683.59L1339.62,1685.55L1273.79,1756.67L1342.18,1777.83L1408.01,1706.71L1414.37,1708.67L1348.54,1779.79L1416.93,1800.95L1482.76,1729.83L1489.12,1731.79L1423.29,1802.91L1491.68,1824.07L1557.51,1752.95L1563.87,1754.91L1498.04,1826.04L1566.43,1847.19L1632.26,1776.07L1638.62,1778.04L1572.79,1849.16L1641.18,1870.31L1707.02,1799.19L1713.37,1801.16L1647.54,1872.28L1715.93,1893.43L1781.77,1822.31L1788.12,1824.28L1722.29,1895.4L1790.68,1916.56L1856.52,1845.43L1862.87,1847.4L1797.04,1918.52L1865.43,1939.68L1931.27,1868.56L1937.62,1870.52L1871.79,1941.64L1940.18,1962.8L2006.02,1891.68L2012.37,1893.64L1946.54,1964.76L2022.37,1988.22L2015.9,1995.21L1940.07,1971.76L1886.49,2029.64L1962.32,2053.1L1955.85,2060.09L1880.02,2036.63L1826.44,2094.52L1902.27,2117.97L1895.8,2124.96L1819.97,2101.51L1766.39,2159.39L1842.22,2182.85L1835.75,2189.84L1759.92,2166.39L1706.34,2224.27L1782.17,2247.72L1775.69,2254.72L1699.87,2231.26L1646.29,2289.15L1722.12,2312.6L1715.64,2319.59L1639.82,2296.14L1586.24,2354.02L1662.07,2377.48L1655.6,2384.47L1579.77,2361.02L1510.55,2435.8L1504.2,2433.83L1573.41,2359.05L1505.02,2337.9L1435.8,2412.67L1429.44,2410.71L1498.66,2335.93L1430.27,2314.77L1361.05,2389.55L1354.69,2387.59L1423.91,2312.81L1355.52,2291.65L1286.3,2366.43L1279.94,2364.47L1349.16,2289.69L1280.77,2268.53L1211.55,2343.31L1205.19,2341.35L1274.41,2266.57L1206.02,2245.41L1136.8,2320.19L1130.44,2318.22L1199.66,2243.45L1131.27,2222.29L1062.05,2297.07L1055.69,2295.1L1124.91,2220.32L1056.52,2199.17L987.3,2273.95L980.944,2271.98L1050.16,2197.2L981.765,2176.05L912.55,2250.83L906.194,2248.86L975.409,2174.08L907.015,2152.93L837.8,2227.7L831.444,2225.74L900.659,2150.96L832.265,2129.8L763.05,2204.58L756.693,2202.62L825.909,2127.84L757.515,2106.68L688.299,2181.46L681.943,2179.5L751.159,2104.72L682.765,2083.56L613.549,2158.34L607.193,2156.38L676.408,2081.6L608.014,2060.44L538.799,2135.22L532.443,2133.25L601.658,2058.47L510.582,2030.3L517.054,2023.31L608.131,2051.48L661.708,1993.6L570.632,1965.43L577.104,1958.43L668.181,1986.61L721.759,1928.72L630.682,1900.55L637.155,1893.56L728.231,1921.73L781.809,1863.85L690.733,1835.67L697.205,1828.68L788.281,1856.85L841.859,1798.97L750.783,1770.8L757.255,1763.81L848.332,1791.98L901.909,1734.09L810.833,1705.92L817.305,1698.93L908.382,1727.1L961.96,1669.22L870.883,1641.04L877.356,1634.05L968.432,1662.22ZM1511.49,2330.9L1579.88,2352.06L1633.46,2294.17L1565.07,2273.02L1511.49,2330.9ZM1436.74,2307.78L1505.13,2328.94L1558.71,2271.05L1490.32,2249.9L1436.74,2307.78ZM1361.99,2284.66L1430.38,2305.82L1483.96,2247.93L1415.57,2226.78L1361.99,2284.66ZM1571.54,2266.03L1639.93,2287.18L1693.51,2229.3L1625.12,2208.14L1571.54,2266.03ZM1287.24,2261.54L1355.63,2282.7L1409.21,2224.81L1340.82,2203.66L1287.24,2261.54ZM1496.79,2242.91L1565.18,2264.06L1618.76,2206.18L1550.37,2185.02L1496.79,2242.91ZM1212.49,2238.42L1280.88,2259.57L1334.46,2201.69L1266.07,2180.53L1212.49,2238.42ZM1422.04,2219.78L1490.43,2240.94L1544.01,2183.05L1475.62,2161.9L1422.04,2219.78ZM1137.74,2215.3L1206.13,2236.45L1259.71,2178.57L1191.32,2157.41L1137.74,2215.3ZM1631.59,2201.15L1699.98,2222.3L1753.56,2164.42L1685.17,2143.26L1631.59,2201.15ZM1347.29,2196.66L1415.68,2217.82L1469.26,2159.93L1400.87,2138.78L1347.29,2196.66ZM1062.99,2192.18L1131.38,2213.33L1184.96,2155.45L1116.57,2134.29L1062.99,2192.18ZM1556.84,2178.03L1625.23,2199.18L1678.81,2141.3L1610.42,2120.14L1556.84,2178.03ZM1272.54,2173.54L1340.93,2194.7L1394.51,2136.81L1326.12,2115.66L1272.54,2173.54ZM988.238,2169.05L1056.63,2190.21L1110.21,2132.33L1041.82,2111.17L988.238,2169.05ZM1482.09,2154.91L1550.48,2176.06L1604.06,2118.18L1535.67,2097.02L1482.09,2154.91ZM1197.79,2150.42L1266.18,2171.57L1319.76,2113.69L1251.37,2092.54L1197.79,2150.42ZM913.488,2145.93L981.882,2167.09L1035.46,2109.2L967.065,2088.05L913.488,2145.93ZM1691.64,2136.27L1760.03,2157.43L1813.61,2099.54L1745.22,2078.39L1691.64,2136.27ZM1407.34,2131.79L1475.73,2152.94L1529.31,2095.06L1460.92,2073.9L1407.34,2131.79ZM1123.04,2127.3L1191.43,2148.45L1245.01,2090.57L1176.62,2069.41L1123.04,2127.3ZM838.737,2122.81L907.132,2143.97L960.709,2086.08L892.315,2064.93L838.737,2122.81ZM1616.89,2113.15L1685.28,2134.31L1738.86,2076.42L1670.47,2055.27L1616.89,2113.15ZM1332.59,2108.66L1400.98,2129.82L1454.56,2071.94L1386.17,2050.78L1332.59,2108.66ZM1048.29,2104.18L1116.68,2125.33L1170.26,2067.45L1101.87,2046.29L1048.29,2104.18ZM763.987,2099.69L832.381,2120.85L885.959,2062.96L817.565,2041.81L763.987,2099.69ZM1542.14,2090.03L1610.53,2111.19L1664.11,2053.3L1595.72,2032.15L1542.14,2090.03ZM1257.84,2085.54L1326.23,2106.7L1379.81,2048.82L1311.42,2027.66L1257.84,2085.54ZM973.538,2081.06L1041.93,2102.21L1095.51,2044.33L1027.12,2023.17L973.538,2081.06ZM689.237,2076.57L757.631,2097.72L811.209,2039.84L742.815,2018.69L689.237,2076.57ZM1751.69,2071.4L1820.09,2092.55L1873.66,2034.67L1805.27,2013.51L1751.69,2071.4ZM1467.39,2066.91L1535.78,2088.06L1589.36,2030.18L1520.97,2009.03L1467.39,2066.91ZM1183.09,2062.42L1251.48,2083.58L1305.06,2025.69L1236.67,2004.54L1183.09,2062.42ZM898.788,2057.94L967.182,2079.09L1020.76,2021.21L952.365,2000.05L898.788,2057.94ZM614.487,2053.45L682.881,2074.6L736.459,2016.72L668.065,1995.57L614.487,2053.45ZM1676.94,2048.28L1745.33,2069.43L1798.91,2011.55L1730.52,1990.39L1676.94,2048.28ZM1392.64,2043.79L1461.03,2064.94L1514.61,2007.06L1446.22,1985.9L1392.64,2043.79ZM1108.34,2039.3L1176.73,2060.46L1230.31,2002.57L1161.92,1981.42L1108.34,2039.3ZM824.037,2034.81L892.432,2055.97L946.009,1998.09L877.615,1976.93L824.037,2034.81ZM1602.19,2025.15L1670.58,2046.31L1724.16,1988.42L1655.77,1967.27L1602.19,2025.15ZM1317.89,2020.67L1386.28,2041.82L1439.86,1983.94L1371.47,1962.78L1317.89,2020.67ZM1033.59,2016.18L1101.98,2037.34L1155.56,1979.45L1087.17,1958.3L1033.59,2016.18ZM749.287,2011.69L817.681,2032.85L871.259,1974.96L802.865,1953.81L749.287,2011.69ZM1811.74,2006.52L1880.13,2027.67L1933.71,1969.79L1865.32,1948.63L1811.74,2006.52ZM1527.44,2002.03L1595.83,2023.19L1649.41,1965.3L1581.02,1944.15L1527.44,2002.03ZM1243.14,1997.55L1311.53,2018.7L1365.11,1960.82L1296.72,1939.66L1243.14,1997.55ZM958.838,1993.06L1027.23,2014.21L1080.81,1956.33L1012.42,1935.17L958.838,1993.06ZM674.537,1988.57L742.931,2009.73L796.509,1951.84L728.115,1930.69L674.537,1988.57ZM1736.99,1983.4L1805.38,2004.55L1858.96,1946.67L1790.57,1925.51L1736.99,1983.4ZM1452.69,1978.91L1521.08,2000.07L1574.66,1942.18L1506.27,1921.03L1452.69,1978.91ZM1168.39,1974.42L1236.78,1995.58L1290.36,1937.69L1221.97,1916.54L1168.39,1974.42ZM884.088,1969.94L952.482,1991.09L1006.06,1933.21L937.665,1912.05L884.088,1969.94ZM1662.24,1960.28L1730.63,1981.43L1784.21,1923.55L1715.82,1902.39L1662.24,1960.28ZM1377.94,1955.79L1446.33,1976.94L1499.91,1919.06L1431.52,1897.91L1377.94,1955.79ZM1093.64,1951.3L1162.03,1972.46L1215.61,1914.57L1147.22,1893.42L1093.64,1951.3ZM809.337,1946.82L877.732,1967.97L931.309,1910.09L862.915,1888.93L809.337,1946.82ZM1587.49,1937.16L1655.88,1958.31L1709.46,1900.43L1641.07,1879.27L1587.49,1937.16ZM1303.19,1932.67L1371.58,1953.82L1425.16,1895.94L1356.77,1874.79L1303.19,1932.67ZM1018.89,1928.18L1087.28,1949.34L1140.86,1891.45L1072.47,1870.3L1018.89,1928.18ZM734.587,1923.69L802.981,1944.85L856.559,1886.97L788.165,1865.81L734.587,1923.69ZM1512.74,1914.03L1581.13,1935.19L1634.71,1877.31L1566.32,1856.15L1512.74,1914.03ZM1228.44,1909.55L1296.83,1930.7L1350.41,1872.82L1282.02,1851.66L1228.44,1909.55ZM944.138,1905.06L1012.53,1926.22L1066.11,1868.33L997.716,1847.18L944.138,1905.06ZM1437.99,1890.91L1506.38,1912.07L1559.96,1854.18L1491.57,1833.03L1437.99,1890.91ZM1153.69,1886.43L1222.08,1907.58L1275.66,1849.7L1207.27,1828.54L1153.69,1886.43ZM869.388,1881.94L937.782,1903.1L991.36,1845.21L922.965,1824.06L869.388,1881.94ZM1363.24,1867.79L1431.63,1888.95L1485.21,1831.06L1416.82,1809.91L1363.24,1867.79ZM1078.94,1863.31L1147.33,1884.46L1200.91,1826.58L1132.52,1805.42L1078.94,1863.31ZM794.637,1858.82L863.032,1879.97L916.609,1822.09L848.215,1800.93L794.637,1858.82ZM1288.49,1844.67L1356.88,1865.83L1410.46,1807.94L1342.07,1786.79L1288.49,1844.67ZM1004.19,1840.18L1072.58,1861.34L1126.16,1803.45L1057.77,1782.3L1004.19,1840.18ZM1213.74,1821.55L1282.13,1842.7L1335.71,1784.82L1267.32,1763.67L1213.74,1821.55ZM929.438,1817.06L997.832,1838.22L1051.41,1780.33L983.016,1759.18L929.438,1817.06ZM1138.99,1798.43L1207.38,1819.58L1260.96,1761.7L1192.57,1740.54L1138.99,1798.43ZM854.688,1793.94L923.082,1815.1L976.66,1757.21L908.266,1736.06L854.688,1793.94ZM1064.24,1775.31L1132.63,1796.46L1186.21,1738.58L1117.82,1717.42L1064.24,1775.31ZM989.488,1752.19L1057.88,1773.34L1111.46,1715.46L1043.07,1694.3L989.488,1752.19ZM914.738,1729.07L983.132,1750.22L1036.71,1692.34L968.316,1671.18L914.738,1729.07Z" style="fill:white;fill-opacity:0.45;"/></g><g transform="matrix(2.27925,-0.350809,0.26445,1.71816,-248.91,-1035.55)"><path d="M968.432,1662.22L1034.26,1591.1L1040.62,1593.07L974.788,1664.19L1043.18,1685.34L1109.01,1614.22L1115.37,1616.19L1049.54,1687.31L1117.93,1708.47L1183.76,1637.34L1190.12,1639.31L1124.29,1710.43L1192.68,1731.59L1258.51,1660.46L1264.87,1662.43L1199.04,1733.55L1267.43,1754.71L1333.26,1683.59L1339.62,1685.55L1273.79,1756.67L1342.18,1777.83L1408.01,1706.71L1414.37,1708.67L1348.54,1779.79L1416.93,1800.95L1482.76,1729.83L1489.12,1731.79L1423.29,1802.91L1491.68,1824.07L1557.51,1752.95L1563.87,1754.91L1498.04,1826.04L1566.43,1847.19L1632.26,1776.07L1638.62,1778.04L1572.79,1849.16L1641.18,1870.31L1707.02,1799.19L1713.37,1801.16L1647.54,1872.28L1715.93,1893.43L1781.77,1822.31L1788.12,1824.28L1722.29,1895.4L1790.68,1916.56L1856.52,1845.43L1862.87,1847.4L1797.04,1918.52L1865.43,1939.68L1931.27,1868.56L1937.62,1870.52L1871.79,1941.64L1940.18,1962.8L2006.02,1891.68L2012.37,1893.64L1946.54,1964.76L2022.37,1988.22L2015.9,1995.21L1940.07,1971.76L1886.49,2029.64L1962.32,2053.1L1955.85,2060.09L1880.02,2036.63L1826.44,2094.52L1902.27,2117.97L1895.8,2124.96L1819.97,2101.51L1766.39,2159.39L1842.22,2182.85L1835.75,2189.84L1759.92,2166.39L1706.34,2224.27L1782.17,2247.72L1775.69,2254.72L1699.87,2231.26L1646.29,2289.15L1722.12,2312.6L1715.64,2319.59L1639.82,2296.14L1586.24,2354.02L1662.07,2377.48L1655.6,2384.47L1579.77,2361.02L1510.55,2435.8L1504.2,2433.83L1573.41,2359.05L1505.02,2337.9L1435.8,2412.67L1429.44,2410.71L1498.66,2335.93L1430.27,2314.77L1361.05,2389.55L1354.69,2387.59L1423.91,2312.81L1355.52,2291.65L1286.3,2366.43L1279.94,2364.47L1349.16,2289.69L1280.77,2268.53L1211.55,2343.31L1205.19,2341.35L1274.41,2266.57L1206.02,2245.41L1136.8,2320.19L1130.44,2318.22L1199.66,2243.45L1131.27,2222.29L1062.05,2297.07L1055.69,2295.1L1124.91,2220.32L1056.52,2199.17L987.3,2273.95L980.944,2271.98L1050.16,2197.2L981.765,2176.05L912.55,2250.83L906.194,2248.86L975.409,2174.08L907.015,2152.93L837.8,2227.7L831.444,2225.74L900.659,2150.96L832.265,2129.8L763.05,2204.58L756.693,2202.62L825.909,2127.84L757.515,2106.68L688.299,2181.46L681.943,2179.5L751.159,2104.72L682.765,2083.56L613.549,2158.34L607.193,2156.38L676.408,2081.6L608.014,2060.44L538.799,2135.22L532.443,2133.25L601.658,2058.47L510.582,2030.3L517.054,2023.31L608.131,2051.48L661.708,1993.6L570.632,1965.43L577.104,1958.43L668.181,1986.61L721.759,1928.72L630.682,1900.55L637.155,1893.56L728.231,1921.73L781.809,1863.85L690.733,1835.67L697.205,1828.68L788.281,1856.85L841.859,1798.97L750.783,1770.8L757.255,1763.81L848.332,1791.98L901.909,1734.09L810.833,1705.92L817.305,1698.93L908.382,1727.1L961.96,1669.22L870.883,1641.04L877.356,1634.05L968.432,1662.22ZM1511.49,2330.9L1579.88,2352.06L1633.46,2294.17L1565.07,2273.02L1511.49,2330.9ZM1436.74,2307.78L1505.13,2328.94L1558.71,2271.05L1490.32,2249.9L1436.74,2307.78ZM1361.99,2284.66L1430.38,2305.82L1483.96,2247.93L1415.57,2226.78L1361.99,2284.66ZM1571.54,2266.03L1639.93,2287.18L1693.51,2229.3L1625.12,2208.14L1571.54,2266.03ZM1287.24,2261.54L1355.63,2282.7L1409.21,2224.81L1340.82,2203.66L1287.24,2261.54ZM1496.79,2242.91L1565.18,2264.06L1618.76,2206.18L1550.37,2185.02L1496.79,2242.91ZM1212.49,2238.42L1280.88,2259.57L1334.46,2201.69L1266.07,2180.53L1212.49,2238.42ZM1422.04,2219.78L1490.43,2240.94L1544.01,2183.05L1475.62,2161.9L1422.04,2219.78ZM1137.74,2215.3L1206.13,2236.45L1259.71,2178.57L1191.32,2157.41L1137.74,2215.3ZM1631.59,2201.15L1699.98,2222.3L1753.56,2164.42L1685.17,2143.26L1631.59,2201.15ZM1347.29,2196.66L1415.68,2217.82L1469.26,2159.93L1400.87,2138.78L1347.29,2196.66ZM1062.99,2192.18L1131.38,2213.33L1184.96,2155.45L1116.57,2134.29L1062.99,2192.18ZM1556.84,2178.03L1625.23,2199.18L1678.81,2141.3L1610.42,2120.14L1556.84,2178.03ZM1272.54,2173.54L1340.93,2194.7L1394.51,2136.81L1326.12,2115.66L1272.54,2173.54ZM988.238,2169.05L1056.63,2190.21L1110.21,2132.33L1041.82,2111.17L988.238,2169.05ZM1482.09,2154.91L1550.48,2176.06L1604.06,2118.18L1535.67,2097.02L1482.09,2154.91ZM1197.79,2150.42L1266.18,2171.57L1319.76,2113.69L1251.37,2092.54L1197.79,2150.42ZM913.488,2145.93L981.882,2167.09L1035.46,2109.2L967.065,2088.05L913.488,2145.93ZM1691.64,2136.27L1760.03,2157.43L1813.61,2099.54L1745.22,2078.39L1691.64,2136.27ZM1407.34,2131.79L1475.73,2152.94L1529.31,2095.06L1460.92,2073.9L1407.34,2131.79ZM1123.04,2127.3L1191.43,2148.45L1245.01,2090.57L1176.62,2069.41L1123.04,2127.3ZM838.737,2122.81L907.132,2143.97L960.709,2086.08L892.315,2064.93L838.737,2122.81ZM1616.89,2113.15L1685.28,2134.31L1738.86,2076.42L1670.47,2055.27L1616.89,2113.15ZM1332.59,2108.66L1400.98,2129.82L1454.56,2071.94L1386.17,2050.78L1332.59,2108.66ZM1048.29,2104.18L1116.68,2125.33L1170.26,2067.45L1101.87,2046.29L1048.29,2104.18ZM763.987,2099.69L832.381,2120.85L885.959,2062.96L817.565,2041.81L763.987,2099.69ZM1542.14,2090.03L1610.53,2111.19L1664.11,2053.3L1595.72,2032.15L1542.14,2090.03ZM1257.84,2085.54L1326.23,2106.7L1379.81,2048.82L1311.42,2027.66L1257.84,2085.54ZM973.538,2081.06L1041.93,2102.21L1095.51,2044.33L1027.12,2023.17L973.538,2081.06ZM689.237,2076.57L757.631,2097.72L811.209,2039.84L742.815,2018.69L689.237,2076.57ZM1751.69,2071.4L1820.09,2092.55L1873.66,2034.67L1805.27,2013.51L1751.69,2071.4ZM1467.39,2066.91L1535.78,2088.06L1589.36,2030.18L1520.97,2009.03L1467.39,2066.91ZM1183.09,2062.42L1251.48,2083.58L1305.06,2025.69L1236.67,2004.54L1183.09,2062.42ZM898.788,2057.94L967.182,2079.09L1020.76,2021.21L952.365,2000.05L898.788,2057.94ZM614.487,2053.45L682.881,2074.6L736.459,2016.72L668.065,1995.57L614.487,2053.45ZM1676.94,2048.28L1745.33,2069.43L1798.91,2011.55L1730.52,1990.39L1676.94,2048.28ZM1392.64,2043.79L1461.03,2064.94L1514.61,2007.06L1446.22,1985.9L1392.64,2043.79ZM1108.34,2039.3L1176.73,2060.46L1230.31,2002.57L1161.92,1981.42L1108.34,2039.3ZM824.037,2034.81L892.432,2055.97L946.009,1998.09L877.615,1976.93L824.037,2034.81ZM1602.19,2025.15L1670.58,2046.31L1724.16,1988.42L1655.77,1967.27L1602.19,2025.15ZM1317.89,2020.67L1386.28,2041.82L1439.86,1983.94L1371.47,1962.78L1317.89,2020.67ZM1033.59,2016.18L1101.98,2037.34L1155.56,1979.45L1087.17,1958.3L1033.59,2016.18ZM749.287,2011.69L817.681,2032.85L871.259,1974.96L802.865,1953.81L749.287,2011.69ZM1811.74,2006.52L1880.13,2027.67L1933.71,1969.79L1865.32,1948.63L1811.74,2006.52ZM1527.44,2002.03L1595.83,2023.19L1649.41,1965.3L1581.02,1944.15L1527.44,2002.03ZM1243.14,1997.55L1311.53,2018.7L1365.11,1960.82L1296.72,1939.66L1243.14,1997.55ZM958.838,1993.06L1027.23,2014.21L1080.81,1956.33L1012.42,1935.17L958.838,1993.06ZM674.537,1988.57L742.931,2009.73L796.509,1951.84L728.115,1930.69L674.537,1988.57ZM1736.99,1983.4L1805.38,2004.55L1858.96,1946.67L1790.57,1925.51L1736.99,1983.4ZM1452.69,1978.91L1521.08,2000.07L1574.66,1942.18L1506.27,1921.03L1452.69,1978.91ZM1168.39,1974.42L1236.78,1995.58L1290.36,1937.69L1221.97,1916.54L1168.39,1974.42ZM884.088,1969.94L952.482,1991.09L1006.06,1933.21L937.665,1912.05L884.088,1969.94ZM1662.24,1960.28L1730.63,1981.43L1784.21,1923.55L1715.82,1902.39L1662.24,1960.28ZM1377.94,1955.79L1446.33,1976.94L1499.91,1919.06L1431.52,1897.91L1377.94,1955.79ZM1093.64,1951.3L1162.03,1972.46L1215.61,1914.57L1147.22,1893.42L1093.64,1951.3ZM809.337,1946.82L877.732,1967.97L931.309,1910.09L862.915,1888.93L809.337,1946.82ZM1587.49,1937.16L1655.88,1958.31L1709.46,1900.43L1641.07,1879.27L1587.49,1937.16ZM1303.19,1932.67L1371.58,1953.82L1425.16,1895.94L1356.77,1874.79L1303.19,1932.67ZM1018.89,1928.18L1087.28,1949.34L1140.86,1891.45L1072.47,1870.3L1018.89,1928.18ZM734.587,1923.69L802.981,1944.85L856.559,1886.97L788.165,1865.81L734.587,1923.69ZM1512.74,1914.03L1581.13,1935.19L1634.71,1877.31L1566.32,1856.15L1512.74,1914.03ZM1228.44,1909.55L1296.83,1930.7L1350.41,1872.82L1282.02,1851.66L1228.44,1909.55ZM944.138,1905.06L1012.53,1926.22L1066.11,1868.33L997.716,1847.18L944.138,1905.06ZM1437.99,1890.91L1506.38,1912.07L1559.96,1854.18L1491.57,1833.03L1437.99,1890.91ZM1153.69,1886.43L1222.08,1907.58L1275.66,1849.7L1207.27,1828.54L1153.69,1886.43ZM869.388,1881.94L937.782,1903.1L991.36,1845.21L922.965,1824.06L869.388,1881.94ZM1363.24,1867.79L1431.63,1888.95L1485.21,1831.06L1416.82,1809.91L1363.24,1867.79ZM1078.94,1863.31L1147.33,1884.46L1200.91,1826.58L1132.52,1805.42L1078.94,1863.31ZM794.637,1858.82L863.032,1879.97L916.609,1822.09L848.215,1800.93L794.637,1858.82ZM1288.49,1844.67L1356.88,1865.83L1410.46,1807.94L1342.07,1786.79L1288.49,1844.67ZM1004.19,1840.18L1072.58,1861.34L1126.16,1803.45L1057.77,1782.3L1004.19,1840.18ZM1213.74,1821.55L1282.13,1842.7L1335.71,1784.82L1267.32,1763.67L1213.74,1821.55ZM929.438,1817.06L997.832,1838.22L1051.41,1780.33L983.016,1759.18L929.438,1817.06ZM1138.99,1798.43L1207.38,1819.58L1260.96,1761.7L1192.57,1740.54L1138.99,1798.43ZM854.688,1793.94L923.082,1815.1L976.66,1757.21L908.266,1736.06L854.688,1793.94ZM1064.24,1775.31L1132.63,1796.46L1186.21,1738.58L1117.82,1717.42L1064.24,1775.31ZM989.488,1752.19L1057.88,1773.34L1111.46,1715.46L1043.07,1694.3L989.488,1752.19ZM914.738,1729.07L983.132,1750.22L1036.71,1692.34L968.316,1671.18L914.738,1729.07Z" style="fill:white;fill-opacity:0.45;"/></g><g transform="matrix(0.999297,0,0,0.999297,-1.66913,0.144597)"><path d="M7.409,1148.43L4069.28,1452.76L4008.39,2394.69C4008.39,2394.69 132.445,2394.03 107.065,2377.65C81.686,2361.27 7.409,1148.43 7.409,1148.43Z" style="fill:url(#_Linear3);"/></g><g transform="matrix(-2.64405,-3.06209,-4.04048,0.795207,9619.93,8585.8)"><g transform="matrix(1,0,0,1,-1.90229,1.37203)"><path d="M2387,715.136L2344.66,670.766L2201.57,670.766L2201.57,933.178L2387,933.178L2387,715.136Z" style="fill-opacity:0.1;"/></g><path d="M2387,715.136L2344.66,670.766L2201.57,670.766L2201.57,933.178L2387,933.178L2387,715.136Z" style="fill:rgb(232,246,255);"/><g transform="matrix(-0.682565,0.00394843,0.00602802,0.699685,3113.2,633.752)"><g transform="matrix(0.239375,-1.62918e-19,-3.25837e-19,0.239375,977.479,223.363)"><path d="M1357.14,286.304C1357.14,275.7 1348.53,267.091 1337.92,267.091L543.995,267.091C533.391,267.091 524.782,275.7 524.782,286.304C524.782,296.908 533.391,305.517 543.995,305.517L1337.92,305.517C1348.53,305.517 1357.14,296.908 1357.14,286.304Z" style="fill:white;"/></g><g transform="matrix(0.239375,-1.62918e-19,-3.25837e-19,0.239375,978.002,282.582)"><path d="M1357.14,286.304C1357.14,275.7 1348.53,267.091 1337.92,267.091L543.995,267.091C533.391,267.091 524.782,275.7 524.782,286.304C524.782,296.908 533.391,305.517 543.995,305.517L1337.92,305.517C1348.53,305.517 1357.14,296.908 1357.14,286.304Z" style="fill:white;"/></g><g transform="matrix(0.385494,-2.62367e-19,-5.24733e-19,0.385494,910.984,-48.4089)"><g transform="matrix(0.900109,0,0,0.801474,59.7802,80.9498)"><rect x="506.059" y="487.605" width="80.05" height="407.837" style="fill:rgb(187,227,248);"/></g><g transform="matrix(0.900109,0,0,0.555165,164.727,301.505)"><rect x="506.059" y="487.605" width="80.05" height="407.837" style="fill:rgb(187,227,248);"/></g><g transform="matrix(0.900109,0,0,0.353623,269.674,481.975)"><rect x="506.059" y="487.605" width="80.05" height="407.837" style="fill:rgb(187,227,248);"/></g><g transform="matrix(0.900109,0,0,0.58284,374.621,276.724)"><rect x="506.059" y="487.605" width="80.05" height="407.837" style="fill:rgb(187,227,248);"/></g><g transform="matrix(0.900109,0,-4.99661e-17,0.839717,479.568,46.7055)"><rect x="506.059" y="487.605" width="80.05" height="407.837" style="fill:rgb(187,227,248);"/></g></g><g transform="matrix(0.196904,-1.34013e-19,-2.68025e-19,0.196904,1048.92,118.563)"><circle cx="584.195" cy="1024.83" r="74.953" style="fill:white;"/></g><g transform="matrix(0.196904,-1.34013e-19,-2.68025e-19,0.196904,1089.4,118.563)"><circle cx="584.195" cy="1024.83" r="74.953" style="fill:white;"/></g><g transform="matrix(0.196904,-1.34013e-19,-2.68025e-19,0.196904,1130.92,118.563)"><circle cx="584.195" cy="1024.83" r="74.953" style="fill:white;"/></g><g transform="matrix(0.196904,-1.34013e-19,-2.68025e-19,0.196904,1131.44,177.782)"><circle cx="584.195" cy="1024.83" r="74.953" style="fill:white;"/></g><g transform="matrix(0.196904,-1.34013e-19,-2.68025e-19,0.196904,1172.44,118.563)"><circle cx="584.195" cy="1024.83" r="74.953" style="fill:white;"/></g><g transform="matrix(0.196904,-1.34013e-19,-2.68025e-19,0.196904,1172.96,177.782)"><circle cx="584.195" cy="1024.83" r="74.953" style="fill:white;"/></g></g><g transform="matrix(1,0,0,1,-2.84164,2.97794)"><rect x="2224.62" y="690.598" width="81.348" height="4.702" style="fill:white;"/></g><g transform="matrix(1,0,0,1,-2.84164,14.0151)"><rect x="2224.62" y="690.598" width="81.348" height="4.702" style="fill:white;"/></g><path d="M2344.66,670.766L2342.93,719.997L2387.79,716.319L2344.66,670.766Z" style="fill:rgb(186,228,255);"/><path d="M2344.66,670.766L2343.54,715.482L2387.79,716.319L2344.66,670.766Z" style="fill:rgb(232,246,255);"/></g><g transform="matrix(3.30916,-3.83236,5.05686,0.995241,-8165.56,10039.5)"><g transform="matrix(1,0,0,1,-1.90229,1.37203)"><path d="M2387,715.136L2344.66,670.766L2201.57,670.766L2201.57,933.178L2387,933.178L2387,715.136Z" style="fill-opacity:0.1;"/></g><path d="M2387,715.136L2344.66,670.766L2201.57,670.766L2201.57,933.178L2387,933.178L2387,715.136Z" style="fill:rgb(232,246,255);"/><g transform="matrix(-0.682565,0.00394843,0.00602802,0.699685,3113.2,633.752)"><g transform="matrix(0.239375,-1.62918e-19,-3.25837e-19,0.239375,977.479,223.363)"><path d="M1357.14,286.304C1357.14,275.7 1348.53,267.091 1337.92,267.091L543.995,267.091C533.391,267.091 524.782,275.7 524.782,286.304C524.782,296.908 533.391,305.517 543.995,305.517L1337.92,305.517C1348.53,305.517 1357.14,296.908 1357.14,286.304Z" style="fill:white;"/></g><g transform="matrix(0.239375,-1.62918e-19,-3.25837e-19,0.239375,978.002,282.582)"><path d="M1357.14,286.304C1357.14,275.7 1348.53,267.091 1337.92,267.091L543.995,267.091C533.391,267.091 524.782,275.7 524.782,286.304C524.782,296.908 533.391,305.517 543.995,305.517L1337.92,305.517C1348.53,305.517 1357.14,296.908 1357.14,286.304Z" style="fill:white;"/></g><g transform="matrix(0.385494,-2.62367e-19,-5.24733e-19,0.385494,910.984,-48.4089)"><g transform="matrix(0.900109,0,0,0.801474,59.7802,80.9498)"><rect x="506.059" y="487.605" width="80.05" height="407.837" style="fill:rgb(187,227,248);"/></g><g transform="matrix(0.900109,0,0,0.555165,164.727,301.505)"><rect x="506.059" y="487.605" width="80.05" height="407.837" style="fill:rgb(187,227,248);"/></g><g transform="matrix(0.900109,0,0,0.353623,269.674,481.975)"><rect x="506.059" y="487.605" width="80.05" height="407.837" style="fill:rgb(187,227,248);"/></g><g transform="matrix(0.900109,0,0,0.58284,374.621,276.724)"><rect x="506.059" y="487.605" width="80.05" height="407.837" style="fill:rgb(187,227,248);"/></g><g transform="matrix(0.900109,0,-4.99661e-17,0.839717,479.568,46.7055)"><rect x="506.059" y="487.605" width="80.05" height="407.837" style="fill:rgb(187,227,248);"/></g></g><g transform="matrix(0.196904,-1.34013e-19,-2.68025e-19,0.196904,1008.45,118.563)"><circle cx="584.195" cy="1024.83" r="74.953" style="fill:white;"/></g><g transform="matrix(0.196904,-1.34013e-19,-2.68025e-19,0.196904,1048.92,118.563)"><circle cx="584.195" cy="1024.83" r="74.953" style="fill:white;"/></g><g transform="matrix(0.196904,-1.34013e-19,-2.68025e-19,0.196904,1089.4,118.563)"><circle cx="584.195" cy="1024.83" r="74.953" style="fill:white;"/></g><g transform="matrix(0.196904,-1.34013e-19,-2.68025e-19,0.196904,1089.92,177.782)"><circle cx="584.195" cy="1024.83" r="74.953" style="fill:white;"/></g><g transform="matrix(0.196904,-1.34013e-19,-2.68025e-19,0.196904,1130.92,118.563)"><circle cx="584.195" cy="1024.83" r="74.953" style="fill:white;"/></g><g transform="matrix(0.196904,-1.34013e-19,-2.68025e-19,0.196904,1131.44,177.782)"><circle cx="584.195" cy="1024.83" r="74.953" style="fill:white;"/></g><g transform="matrix(0.196904,-1.34013e-19,-2.68025e-19,0.196904,1172.44,118.563)"><circle cx="584.195" cy="1024.83" r="74.953" style="fill:white;"/></g><g transform="matrix(0.196904,-1.34013e-19,-2.68025e-19,0.196904,1172.96,177.782)"><circle cx="584.195" cy="1024.83" r="74.953" style="fill:white;"/></g></g><g transform="matrix(1,0,0,1,-2.84164,2.97794)"><rect x="2224.62" y="690.598" width="81.348" height="4.702" style="fill:white;"/></g><g transform="matrix(1,0,0,1,-2.84164,14.0151)"><rect x="2224.62" y="690.598" width="81.348" height="4.702" style="fill:white;"/></g><path d="M2344.66,670.766L2342.93,719.997L2387.79,716.319L2344.66,670.766Z" style="fill:rgb(186,228,255);"/><path d="M2344.66,670.766L2343.54,715.482L2387.79,716.319L2344.66,670.766Z" style="fill:rgb(232,246,255);"/></g><g transform="matrix(0.785202,0,0,0.785202,-7.16671,1058.98)"><g transform="matrix(0.757467,-0.254768,0.254768,0.757467,-2202.41,534.804)"><ellipse cx="3555.66" cy="2522.08" rx="601.945" ry="33.763" style="fill-opacity:0.13;"/></g><g transform="matrix(0.799164,0,0,0.799164,-1385.44,-315.877)"><path d="M2564.83,2418.69L3507.59,2090.58C3507.59,2090.58 3612.36,2075.79 3689.15,2064.95C3696.76,2063.88 3704.07,2068.32 3706.62,2075.56C3709.17,2082.8 3706.25,2090.84 3699.65,2094.77C3637.12,2131.98 3554.66,2181.05 3554.66,2181.05L2806.66,2447.89L2564.83,2418.69Z" style="fill:white;"/></g><g transform="matrix(0.799164,0,0,0.799164,-1489.98,-252.902)"><path d="M3834.43,1991.57C3835.72,1993.06 3836.75,1994.81 3837.43,1996.76C3839.99,2004 3837.07,2012.04 3830.47,2015.97C3767.93,2053.18 3685.48,2102.24 3685.48,2102.24L2937.48,2369.09L2838.76,2357.17L3662.64,2073.65C3666.43,2053.77 3648.19,2031.07 3648.19,2031.07C3665.17,2042.48 3674.95,2064.4 3674.95,2064.4C3674.95,2064.4 3743.79,2040.26 3784.36,2021.29C3804.76,2011.75 3822.17,2000.44 3834.43,1991.57Z" style="fill:rgb(217,239,251);"/></g></g><g transform="matrix(2.12627,0,0,2.12627,-2465.08,-3053.83)"><path d="M2354.94,2131.75L2189.58,2290.33L1934.01,2342.25L2034.99,2160.1L2354.94,2131.75Z" style="fill:url(#_Linear4);"/><path d="M2354.94,2131.75L2194.62,2269.15L2029.85,2268.3L2034.99,2160.1L2354.94,2131.75Z" style="fill:url(#_Linear5);"/><path d="M2034.52,2160.26L2204.84,1839.8L2256.08,2211.48L2034.52,2160.26Z" style="fill:rgb(68,174,158);"/><path d="M2034.52,2160.26L2034.52,2160.27L2240.1,2095.55L2256.08,2211.48L2034.52,2160.26Z" style="fill-opacity:0.13;"/><path d="M2204.84,1839.8L2256.08,2211.48L2354.94,2131.75L2204.84,1839.8Z" style="fill:rgb(128,205,194);"/><path d="M2255.53,2207.52L2263.81,2184.67L2251.41,2177.62L2245.41,2134.12L2299.72,2024.34L2312.72,2049.62L2263.81,2184.67L2278.76,2193.18L2256.08,2211.48L2255.53,2207.52ZM2247.97,1923.68L2279.22,1984.47L2236.9,2072.37L2221.44,1960.18C2230.94,1947.07 2239.99,1934.63 2247.97,1923.68Z" style="fill:url(#_Linear6);"/></g><g transform="matrix(4.50795,0,0,4.50795,-6968.37,-7776.26)"><path d="M2354.94,2131.75L2189.58,2290.33L1934.01,2342.25L2034.99,2160.1L2354.94,2131.75Z" style="fill:url(#_Linear7);"/><path d="M2354.94,2131.75L2194.62,2269.15L2029.85,2268.3L2034.99,2160.1L2354.94,2131.75Z" style="fill:url(#_Linear8);"/><path d="M2034.52,2160.26L2204.84,1839.8L2256.08,2211.48L2034.52,2160.26Z" style="fill:rgb(68,174,158);"/><path d="M2034.52,2160.26L2034.52,2160.27L2240.1,2095.55L2256.08,2211.48L2034.52,2160.26Z" style="fill-opacity:0.13;"/><path d="M2204.84,1839.8L2256.08,2211.48L2354.94,2131.75L2204.84,1839.8Z" style="fill:rgb(128,205,194);"/><path d="M2255.53,2207.52L2263.81,2184.67L2251.41,2177.62L2245.41,2134.12L2299.72,2024.34L2312.72,2049.62L2263.81,2184.67L2278.76,2193.18L2256.08,2211.48L2255.53,2207.52ZM2247.97,1923.68L2279.22,1984.47L2236.9,2072.37L2221.44,1960.18C2230.94,1947.07 2239.99,1934.63 2247.97,1923.68Z" style="fill:url(#_Linear9);"/></g><g transform="matrix(1.24933,-0.132688,0.25317,0.886556,-2516.22,855.546)"><g transform="matrix(1,0,0,1,-31.9335,30.6415)"><path d="M3381.04,1607.21L2498.27,1596.63L2533.23,1641.38L3381.04,2230.83L3381.04,1607.21ZM3260.21,1707.94L2834.48,1707.94L3260.21,1998.38L3260.21,1707.94Z" style="fill-opacity:0.25;"/></g><g transform="matrix(1,0,0,1,-0.299901,18.7906)"><path d="M3381.04,1607.21L2467.93,1589.36L2466.94,1607.21L3381.04,2230.83L3381.04,1607.21ZM3260.21,1707.94L2834.48,1707.94L3260.21,1998.38L3260.21,1707.94Z" style="fill:rgb(192,23,90);"/></g><path d="M3381.04,1607.21L2466.94,1607.21L3381.04,2230.83L3381.04,1607.21ZM3260.21,1707.94L2834.48,1707.94L3260.21,1998.38L3260.21,1707.94Z" style="fill:rgb(236,97,152);"/><path d="M3381.04,1630.02L3381.04,1607.21L2466.94,1607.21L2500.38,1630.02L3381.04,1630.02Z" style="fill:rgb(255,211,229);"/><g transform="matrix(1.05446,-9.1175e-17,0,1.0871,-36.3339,-776.924)"><path d="M2465.46,2197.73L2463.6,2197.73L2463.6,2210.03L2465.46,2210.03L2465.46,2197.73ZM2788.88,2197.73L2787.03,2197.73L2787.03,2210.03L2788.88,2210.03L2788.88,2197.73ZM3203.68,2197.73L3201.82,2197.73L3201.82,2210.03L3203.68,2210.03L3203.68,2197.73ZM3066.73,2197.73L3064.87,2197.73L3064.87,2210.03L3066.73,2210.03L3066.73,2197.73ZM2742.76,2197.73L2740.9,2197.73L2740.9,2210.03L2742.76,2210.03L2742.76,2197.73ZM3157.56,2197.73L3155.7,2197.73L3155.7,2210.03L3157.56,2210.03L3157.56,2197.73ZM3020.61,2197.73L3018.75,2197.73L3018.75,2210.03L3020.61,2210.03L3020.61,2197.73ZM2696.64,2197.73L2694.78,2197.73L2694.78,2210.03L2696.64,2210.03L2696.64,2197.73ZM2974.48,2197.73L2972.63,2197.73L2972.63,2210.03L2974.48,2210.03L2974.48,2197.73ZM2650.52,2197.73L2648.66,2197.73L2648.66,2210.03L2650.52,2210.03L2650.52,2197.73ZM2928.36,2197.73L2926.51,2197.73L2926.51,2210.03L2928.36,2210.03L2928.36,2197.73ZM2604.4,2197.73L2602.54,2197.73L2602.54,2210.03L2604.4,2210.03L2604.4,2197.73ZM2882.24,2197.73L2880.38,2197.73L2880.38,2210.03L2882.24,2210.03L2882.24,2197.73ZM2558.27,2197.73L2556.42,2197.73L2556.42,2210.03L2558.27,2210.03L2558.27,2197.73ZM2836.12,2197.73L2834.26,2197.73L2834.26,2210.03L2836.12,2210.03L2836.12,2197.73ZM2512.15,2197.73L2510.3,2197.73L2510.3,2210.03L2512.15,2210.03L2512.15,2197.73ZM3112.85,2197.73L3110.99,2197.73L3110.99,2210.03L3112.85,2210.03L3112.85,2197.73ZM3212.44,2197.73L3210.59,2197.73L3210.59,2205.13L3212.44,2205.13L3212.44,2197.73ZM2484.14,2197.73L2482.28,2197.73L2482.28,2205.13L2484.14,2205.13L2484.14,2197.73ZM2808.1,2197.73L2806.25,2197.73L2806.25,2205.13L2808.1,2205.13L2808.1,2197.73ZM2530.26,2197.73L2528.4,2197.73L2528.4,2205.13L2530.26,2205.13L2530.26,2197.73ZM2854.22,2197.73L2852.37,2197.73L2852.37,2205.13L2854.22,2205.13L2854.22,2197.73ZM2576.38,2197.73L2574.52,2197.73L2574.52,2205.13L2576.38,2205.13L2576.38,2197.73ZM2900.35,2197.73L2898.49,2197.73L2898.49,2205.13L2900.35,2205.13L2900.35,2197.73ZM2622.5,2197.73L2620.64,2197.73L2620.64,2205.13L2622.5,2205.13L2622.5,2197.73ZM2946.47,2197.73L2944.61,2197.73L2944.61,2205.13L2946.47,2205.13L2946.47,2197.73ZM2668.62,2197.73L2666.76,2197.73L2666.76,2205.13L2668.62,2205.13L2668.62,2197.73ZM2992.59,2197.73L2990.73,2197.73L2990.73,2205.13L2992.59,2205.13L2992.59,2197.73ZM3129.54,2197.73L3127.68,2197.73L3127.68,2205.13L3129.54,2205.13L3129.54,2197.73ZM2714.74,2197.73L2712.89,2197.73L2712.89,2205.13L2714.74,2205.13L2714.74,2197.73ZM3038.71,2197.73L3036.85,2197.73L3036.85,2205.13L3038.71,2205.13L3038.71,2197.73ZM3175.66,2197.73L3173.8,2197.73L3173.8,2205.13L3175.66,2205.13L3175.66,2197.73ZM2760.87,2197.73L2759.01,2197.73L2759.01,2205.13L2760.87,2205.13L2760.87,2197.73ZM3084.83,2197.73L3082.97,2197.73L3082.97,2205.13L3084.83,2205.13L3084.83,2197.73ZM3221.78,2197.73L3219.93,2197.73L3219.93,2205.13L3221.78,2205.13L3221.78,2197.73ZM2493.47,2197.73L2491.62,2197.73L2491.62,2205.13L2493.47,2205.13L2493.47,2197.73ZM2817.44,2197.73L2815.59,2197.73L2815.59,2205.13L2817.44,2205.13L2817.44,2197.73ZM2539.6,2197.73L2537.74,2197.73L2537.74,2205.13L2539.6,2205.13L2539.6,2197.73ZM2863.56,2197.73L2861.71,2197.73L2861.71,2205.13L2863.56,2205.13L2863.56,2197.73ZM2585.72,2197.73L2583.86,2197.73L2583.86,2205.13L2585.72,2205.13L2585.72,2197.73ZM2909.68,2197.73L2907.83,2197.73L2907.83,2205.13L2909.68,2205.13L2909.68,2197.73ZM3075.49,2197.73L3073.64,2197.73L3073.64,2205.13L3075.49,2205.13L3075.49,2197.73ZM2955.81,2197.73L2953.95,2197.73L2953.95,2205.13L2955.81,2205.13L2955.81,2197.73ZM2677.96,2197.73L2676.1,2197.73L2676.1,2205.13L2677.96,2205.13L2677.96,2197.73ZM3001.93,2197.73L3000.07,2197.73L3000.07,2205.13L3001.93,2205.13L3001.93,2197.73ZM3138.88,2197.73L3137.02,2197.73L3137.02,2205.13L3138.88,2205.13L3138.88,2197.73ZM2724.08,2197.73L2722.22,2197.73L2722.22,2205.13L2724.08,2205.13L2724.08,2197.73ZM3048.05,2197.73L3046.19,2197.73L3046.19,2205.13L3048.05,2205.13L3048.05,2197.73ZM3185,2197.73L3183.14,2197.73L3183.14,2205.13L3185,2205.13L3185,2197.73ZM2770.2,2197.73L2768.35,2197.73L2768.35,2205.13L2770.2,2205.13L2770.2,2197.73ZM3094.17,2197.73L3092.31,2197.73L3092.31,2205.13L3094.17,2205.13L3094.17,2197.73ZM2502.81,2197.73L2500.96,2197.73L2500.96,2205.13L2502.81,2205.13L2502.81,2197.73ZM2826.78,2197.73L2824.92,2197.73L2824.92,2205.13L2826.78,2205.13L2826.78,2197.73ZM2548.93,2197.73L2547.08,2197.73L2547.08,2205.13L2548.93,2205.13L2548.93,2197.73ZM2872.9,2197.73L2871.05,2197.73L2871.05,2205.13L2872.9,2205.13L2872.9,2197.73ZM2595.06,2197.73L2593.2,2197.73L2593.2,2205.13L2595.06,2205.13L2595.06,2197.73ZM2919.02,2197.73L2917.17,2197.73L2917.17,2205.13L2919.02,2205.13L2919.02,2197.73ZM2641.18,2197.73L2639.32,2197.73L2639.32,2205.13L2641.18,2205.13L2641.18,2197.73ZM2965.14,2197.73L2963.29,2197.73L2963.29,2205.13L2965.14,2205.13L2965.14,2197.73ZM2687.3,2197.73L2685.44,2197.73L2685.44,2205.13L2687.3,2205.13L2687.3,2197.73ZM3011.27,2197.73L3009.41,2197.73L3009.41,2205.13L3011.27,2205.13L3011.27,2197.73ZM3148.22,2197.73L3146.36,2197.73L3146.36,2205.13L3148.22,2205.13L3148.22,2197.73ZM2733.42,2197.73L2731.56,2197.73L2731.56,2205.13L2733.42,2205.13L2733.42,2197.73ZM3057.39,2197.73L3055.53,2197.73L3055.53,2205.13L3057.39,2205.13L3057.39,2197.73ZM3194.34,2197.73L3192.48,2197.73L3192.48,2205.13L3194.34,2205.13L3194.34,2197.73ZM2779.54,2197.73L2777.69,2197.73L2777.69,2205.13L2779.54,2205.13L2779.54,2197.73ZM3103.51,2197.73L3101.65,2197.73L3101.65,2205.13L3103.51,2205.13L3103.51,2197.73ZM2751.53,2197.73L2749.67,2197.73L2749.67,2205.13L2751.53,2205.13L2751.53,2197.73ZM3166.32,2197.73L3164.47,2197.73L3164.47,2205.13L3166.32,2205.13L3166.32,2197.73ZM3029.37,2197.73L3027.51,2197.73L3027.51,2205.13L3029.37,2205.13L3029.37,2197.73ZM2705.4,2197.73L2703.55,2197.73L2703.55,2205.13L2705.4,2205.13L2705.4,2197.73ZM3120.2,2197.73L3118.34,2197.73L3118.34,2205.13L3120.2,2205.13L3120.2,2197.73ZM2983.25,2197.73L2981.39,2197.73L2981.39,2205.13L2983.25,2205.13L2983.25,2197.73ZM2659.28,2197.73L2657.43,2197.73L2657.43,2205.13L2659.28,2205.13L2659.28,2197.73ZM2937.13,2197.73L2935.27,2197.73L2935.27,2205.13L2937.13,2205.13L2937.13,2197.73ZM2613.16,2197.73L2611.3,2197.73L2611.3,2205.13L2613.16,2205.13L2613.16,2197.73ZM2891.01,2197.73L2889.15,2197.73L2889.15,2205.13L2891.01,2205.13L2891.01,2197.73ZM2567.04,2197.73L2565.18,2197.73L2565.18,2205.13L2567.04,2205.13L2567.04,2197.73ZM2844.89,2197.73L2843.03,2197.73L2843.03,2205.13L2844.89,2205.13L2844.89,2197.73ZM2520.92,2197.73L2519.06,2197.73L2519.06,2205.13L2520.92,2205.13L2520.92,2197.73ZM2798.76,2197.73L2796.91,2197.73L2796.91,2205.13L2798.76,2205.13L2798.76,2197.73ZM2474.8,2197.73L2472.94,2197.73L2472.94,2205.13L2474.8,2205.13L2474.8,2197.73ZM2631.84,2197.73L2629.98,2197.73L2629.98,2205.13L2631.84,2205.13L2631.84,2197.73Z" style="fill:rgb(236,97,152);"/></g></g><g transform="matrix(0.878794,-0.745601,1.822,0.0735773,-6103.17,4088.16)"><g transform="matrix(1,0,0,1,-14.8973,7.71258)"><path d="M3229.12,2120.88L2498.47,2060.44L2451.76,2215.71L3229.12,2215.71L3243.14,2208.35L3229.12,2120.88Z" style="fill:rgb(36,91,83);"/></g><path d="M3229.12,2120.88L2498.47,2060.44L2451.76,2215.71L3229.12,2215.71L3229.12,2120.88Z" style="fill:rgb(63,160,146);"/><g transform="matrix(1,0,0,0.264258,0,1630.19)"><rect x="2451.76" y="2120.88" width="777.353" height="94.829" style="fill:rgb(55,140,128);"/></g><g transform="matrix(1,0,0,0.2202,0,1727.81)"><rect x="2451.76" y="2120.88" width="777.353" height="94.829" style="fill:rgb(75,184,168);"/></g><g transform="matrix(1,0,0,1,-1.53463,0)"><path d="M2465.46,2197.73L2463.6,2197.73L2463.6,2210.03L2465.46,2210.03L2465.46,2197.73ZM2788.88,2197.73L2787.03,2197.73L2787.03,2210.03L2788.88,2210.03L2788.88,2197.73ZM3203.68,2197.73L3201.82,2197.73L3201.82,2210.03L3203.68,2210.03L3203.68,2197.73ZM3066.73,2197.73L3064.87,2197.73L3064.87,2210.03L3066.73,2210.03L3066.73,2197.73ZM2742.76,2197.73L2740.9,2197.73L2740.9,2210.03L2742.76,2210.03L2742.76,2197.73ZM3157.56,2197.73L3155.7,2197.73L3155.7,2210.03L3157.56,2210.03L3157.56,2197.73ZM3020.61,2197.73L3018.75,2197.73L3018.75,2210.03L3020.61,2210.03L3020.61,2197.73ZM2696.64,2197.73L2694.78,2197.73L2694.78,2210.03L2696.64,2210.03L2696.64,2197.73ZM2974.48,2197.73L2972.63,2197.73L2972.63,2210.03L2974.48,2210.03L2974.48,2197.73ZM2650.52,2197.73L2648.66,2197.73L2648.66,2210.03L2650.52,2210.03L2650.52,2197.73ZM2928.36,2197.73L2926.51,2197.73L2926.51,2210.03L2928.36,2210.03L2928.36,2197.73ZM2604.4,2197.73L2602.54,2197.73L2602.54,2210.03L2604.4,2210.03L2604.4,2197.73ZM2882.24,2197.73L2880.38,2197.73L2880.38,2210.03L2882.24,2210.03L2882.24,2197.73ZM2558.27,2197.73L2556.42,2197.73L2556.42,2210.03L2558.27,2210.03L2558.27,2197.73ZM2836.12,2197.73L2834.26,2197.73L2834.26,2210.03L2836.12,2210.03L2836.12,2197.73ZM2512.15,2197.73L2510.3,2197.73L2510.3,2210.03L2512.15,2210.03L2512.15,2197.73ZM3112.85,2197.73L3110.99,2197.73L3110.99,2210.03L3112.85,2210.03L3112.85,2197.73ZM3212.44,2197.73L3210.59,2197.73L3210.59,2205.13L3212.44,2205.13L3212.44,2197.73ZM2484.14,2197.73L2482.28,2197.73L2482.28,2205.13L2484.14,2205.13L2484.14,2197.73ZM2808.1,2197.73L2806.25,2197.73L2806.25,2205.13L2808.1,2205.13L2808.1,2197.73ZM2530.26,2197.73L2528.4,2197.73L2528.4,2205.13L2530.26,2205.13L2530.26,2197.73ZM2854.22,2197.73L2852.37,2197.73L2852.37,2205.13L2854.22,2205.13L2854.22,2197.73ZM2576.38,2197.73L2574.52,2197.73L2574.52,2205.13L2576.38,2205.13L2576.38,2197.73ZM2900.35,2197.73L2898.49,2197.73L2898.49,2205.13L2900.35,2205.13L2900.35,2197.73ZM2622.5,2197.73L2620.64,2197.73L2620.64,2205.13L2622.5,2205.13L2622.5,2197.73ZM2946.47,2197.73L2944.61,2197.73L2944.61,2205.13L2946.47,2205.13L2946.47,2197.73ZM2668.62,2197.73L2666.76,2197.73L2666.76,2205.13L2668.62,2205.13L2668.62,2197.73ZM2992.59,2197.73L2990.73,2197.73L2990.73,2205.13L2992.59,2205.13L2992.59,2197.73ZM3129.54,2197.73L3127.68,2197.73L3127.68,2205.13L3129.54,2205.13L3129.54,2197.73ZM2714.74,2197.73L2712.89,2197.73L2712.89,2205.13L2714.74,2205.13L2714.74,2197.73ZM3038.71,2197.73L3036.85,2197.73L3036.85,2205.13L3038.71,2205.13L3038.71,2197.73ZM3175.66,2197.73L3173.8,2197.73L3173.8,2205.13L3175.66,2205.13L3175.66,2197.73ZM2760.87,2197.73L2759.01,2197.73L2759.01,2205.13L2760.87,2205.13L2760.87,2197.73ZM3084.83,2197.73L3082.97,2197.73L3082.97,2205.13L3084.83,2205.13L3084.83,2197.73ZM3221.78,2197.73L3219.93,2197.73L3219.93,2205.13L3221.78,2205.13L3221.78,2197.73ZM2493.47,2197.73L2491.62,2197.73L2491.62,2205.13L2493.47,2205.13L2493.47,2197.73ZM2817.44,2197.73L2815.59,2197.73L2815.59,2205.13L2817.44,2205.13L2817.44,2197.73ZM2539.6,2197.73L2537.74,2197.73L2537.74,2205.13L2539.6,2205.13L2539.6,2197.73ZM2863.56,2197.73L2861.71,2197.73L2861.71,2205.13L2863.56,2205.13L2863.56,2197.73ZM2585.72,2197.73L2583.86,2197.73L2583.86,2205.13L2585.72,2205.13L2585.72,2197.73ZM2909.68,2197.73L2907.83,2197.73L2907.83,2205.13L2909.68,2205.13L2909.68,2197.73ZM3075.49,2197.73L3073.64,2197.73L3073.64,2205.13L3075.49,2205.13L3075.49,2197.73ZM2955.81,2197.73L2953.95,2197.73L2953.95,2205.13L2955.81,2205.13L2955.81,2197.73ZM2677.96,2197.73L2676.1,2197.73L2676.1,2205.13L2677.96,2205.13L2677.96,2197.73ZM3001.93,2197.73L3000.07,2197.73L3000.07,2205.13L3001.93,2205.13L3001.93,2197.73ZM3138.88,2197.73L3137.02,2197.73L3137.02,2205.13L3138.88,2205.13L3138.88,2197.73ZM2724.08,2197.73L2722.22,2197.73L2722.22,2205.13L2724.08,2205.13L2724.08,2197.73ZM3048.05,2197.73L3046.19,2197.73L3046.19,2205.13L3048.05,2205.13L3048.05,2197.73ZM3185,2197.73L3183.14,2197.73L3183.14,2205.13L3185,2205.13L3185,2197.73ZM2770.2,2197.73L2768.35,2197.73L2768.35,2205.13L2770.2,2205.13L2770.2,2197.73ZM3094.17,2197.73L3092.31,2197.73L3092.31,2205.13L3094.17,2205.13L3094.17,2197.73ZM2502.81,2197.73L2500.96,2197.73L2500.96,2205.13L2502.81,2205.13L2502.81,2197.73ZM2826.78,2197.73L2824.92,2197.73L2824.92,2205.13L2826.78,2205.13L2826.78,2197.73ZM2548.93,2197.73L2547.08,2197.73L2547.08,2205.13L2548.93,2205.13L2548.93,2197.73ZM2872.9,2197.73L2871.05,2197.73L2871.05,2205.13L2872.9,2205.13L2872.9,2197.73ZM2595.06,2197.73L2593.2,2197.73L2593.2,2205.13L2595.06,2205.13L2595.06,2197.73ZM2919.02,2197.73L2917.17,2197.73L2917.17,2205.13L2919.02,2205.13L2919.02,2197.73ZM2641.18,2197.73L2639.32,2197.73L2639.32,2205.13L2641.18,2205.13L2641.18,2197.73ZM2965.14,2197.73L2963.29,2197.73L2963.29,2205.13L2965.14,2205.13L2965.14,2197.73ZM2687.3,2197.73L2685.44,2197.73L2685.44,2205.13L2687.3,2205.13L2687.3,2197.73ZM3011.27,2197.73L3009.41,2197.73L3009.41,2205.13L3011.27,2205.13L3011.27,2197.73ZM3148.22,2197.73L3146.36,2197.73L3146.36,2205.13L3148.22,2205.13L3148.22,2197.73ZM2733.42,2197.73L2731.56,2197.73L2731.56,2205.13L2733.42,2205.13L2733.42,2197.73ZM3057.39,2197.73L3055.53,2197.73L3055.53,2205.13L3057.39,2205.13L3057.39,2197.73ZM3194.34,2197.73L3192.48,2197.73L3192.48,2205.13L3194.34,2205.13L3194.34,2197.73ZM2779.54,2197.73L2777.69,2197.73L2777.69,2205.13L2779.54,2205.13L2779.54,2197.73ZM3103.51,2197.73L3101.65,2197.73L3101.65,2205.13L3103.51,2205.13L3103.51,2197.73ZM2751.53,2197.73L2749.67,2197.73L2749.67,2205.13L2751.53,2205.13L2751.53,2197.73ZM3166.32,2197.73L3164.47,2197.73L3164.47,2205.13L3166.32,2205.13L3166.32,2197.73ZM3029.37,2197.73L3027.51,2197.73L3027.51,2205.13L3029.37,2205.13L3029.37,2197.73ZM2705.4,2197.73L2703.55,2197.73L2703.55,2205.13L2705.4,2205.13L2705.4,2197.73ZM3120.2,2197.73L3118.34,2197.73L3118.34,2205.13L3120.2,2205.13L3120.2,2197.73ZM2983.25,2197.73L2981.39,2197.73L2981.39,2205.13L2983.25,2205.13L2983.25,2197.73ZM2659.28,2197.73L2657.43,2197.73L2657.43,2205.13L2659.28,2205.13L2659.28,2197.73ZM2937.13,2197.73L2935.27,2197.73L2935.27,2205.13L2937.13,2205.13L2937.13,2197.73ZM2613.16,2197.73L2611.3,2197.73L2611.3,2205.13L2613.16,2205.13L2613.16,2197.73ZM2891.01,2197.73L2889.15,2197.73L2889.15,2205.13L2891.01,2205.13L2891.01,2197.73ZM2567.04,2197.73L2565.18,2197.73L2565.18,2205.13L2567.04,2205.13L2567.04,2197.73ZM2844.89,2197.73L2843.03,2197.73L2843.03,2205.13L2844.89,2205.13L2844.89,2197.73ZM2520.92,2197.73L2519.06,2197.73L2519.06,2205.13L2520.92,2205.13L2520.92,2197.73ZM2798.76,2197.73L2796.91,2197.73L2796.91,2205.13L2798.76,2205.13L2798.76,2197.73ZM2474.8,2197.73L2472.94,2197.73L2472.94,2205.13L2474.8,2205.13L2474.8,2197.73ZM2631.84,2197.73L2629.98,2197.73L2629.98,2205.13L2631.84,2205.13L2631.84,2197.73Z" style="fill:rgb(175,231,223);"/></g></g><g transform="matrix(0.893655,0,0,0.893655,-383.481,-18.8952)"><g transform="matrix(0.532981,-0.511454,1.0495,0.381548,-1439.55,1516.02)"><path d="M925.16,1247.7L1138.97,1139.68L1569.44,1951.55L1355.44,2060.42L494.875,2060.42L925.16,1247.7Z" style="fill:rgb(53,135,123);"/></g><g transform="matrix(0.950641,0,0,0.871549,-168.53,448.945)"><path d="M1464.81,1138.07L1697.33,1158.12L1697.61,1330.94L1217.71,1833.26L1215.71,1640.91L1464.81,1138.07Z" style="fill:rgb(62,158,143);"/></g><g transform="matrix(0.532981,-0.511454,1.0495,0.381548,-1439.55,1364.97)"><path d="M925.16,1247.7L1355.44,2060.42L494.875,2060.42L925.16,1247.7Z" style="fill:rgb(68,174,158);"/></g></g><g transform="matrix(2.53852,0,0,2.53852,159.204,-1191.09)"><g transform="matrix(-1.41769,-2.9051,-2.9051,1.41769,279.086,606.152)"><path d="M-27.534,-28.26C-27.534,-28.26 -40.01,-29.805 -39.673,-16.575C-39.337,-3.345 -19.783,11.036 -27.534,29.656C-10.094,17.435 -5.559,6.457 -6.883,-6.386C-8.485,-21.924 -21.257,-36.335 -27.534,-28.26" style="fill:rgb(63,160,146);fill-rule:nonzero;"/></g><g transform="matrix(3.23256,0,0,3.23256,367.736,703.155)"><path d="M0,-19.123C-8.582,-17.217 -12.606,-8.039 -12.096,-0.255C-10.396,-0.152 -8.724,-0.052 -7.1,0C-7.821,-6.859 -5.753,-15.288 0,-19.123" style="fill:rgb(14,132,124);fill-rule:nonzero;"/></g><g transform="matrix(3.23256,0,0,3.23256,304.578,704.393)"><path d="M0,-17.17C-7.498,-14.358 -8.43,-7.369 -10.106,0C-8.63,-0.355 -7.126,-0.591 -5.608,-0.741C-6.214,-7.104 -3.76,-12.47 0,-17.17" style="fill:rgb(14,132,124);fill-rule:nonzero;"/></g><g transform="matrix(3.23256,0,0,3.23256,328.946,617.951)"><path d="M0,7.235C-1.556,3.344 -4.324,1.874 -7.36,0C-9.522,0.835 -11.545,1.821 -13.428,3.002C-8.92,3.03 -4.214,5.128 0,7.235" style="fill:rgb(14,132,124);fill-rule:nonzero;"/></g><g transform="matrix(3.23256,0,0,3.23256,484.169,639.245)"><path d="M0,54.683C0.797,49.94 0.745,44.897 0.203,40.023C-0.342,35.121 -1.516,30.287 -3.274,25.672C-5.031,21.075 -7.421,16.634 -10.322,12.718C-11.844,10.806 -13.683,9.156 -15.661,7.706C-17.64,6.253 -19.805,5.042 -22.075,4.074C-26.601,2.092 -31.51,0.995 -36.455,0.638C-41.403,0.287 -46.421,0.686 -51.246,1.9C-56.067,3.1 -60.707,5.152 -64.711,8.125C-66.693,9.632 -68.529,11.341 -70.111,13.275C-71.665,15.23 -72.972,17.373 -74.019,19.648C-73.01,17.357 -71.737,15.186 -70.209,13.197C-68.652,11.229 -66.835,9.478 -64.862,7.927C-60.878,4.863 -56.227,2.71 -51.372,1.415C-46.513,0.107 -41.438,-0.382 -36.408,-0.111C-31.38,0.168 -26.361,1.199 -21.683,3.154C-19.337,4.109 -17.085,5.319 -15.008,6.79C-12.933,8.258 -10.986,9.946 -9.355,11.926C-6.239,15.989 -3.777,20.413 -1.877,25.125C0.006,29.83 1.295,34.776 1.939,39.808C2.574,44.855 2.739,49.915 1.963,55.065L0,54.683Z" style="fill:rgb(14,132,124);fill-rule:nonzero;"/></g><g transform="matrix(-0.413869,3.20596,3.20596,0.413869,607.148,577.929)"><path d="M29.913,-23.113C29.913,-23.113 42.389,-24.657 42.052,-11.427C41.715,1.803 22.161,16.184 29.913,34.803C12.472,22.582 7.936,11.604 9.261,-1.239C10.863,-16.777 23.636,-31.188 29.913,-23.113" style="fill:rgb(63,160,146);fill-rule:nonzero;"/></g><g transform="matrix(3.23256,0,0,3.23256,648.97,632.55)"><path d="M0,6.719C2.795,3.924 5.59,3.572 8.726,3.612C7.553,2.274 6.367,1.072 5.164,0C2.377,1.251 0,3.272 0,6.719" style="fill:rgb(14,132,124);fill-rule:nonzero;"/></g><g transform="matrix(3.23256,0,0,3.23256,539.062,708.292)"><path d="M0,-15.712C1.672,-9.861 4.733,-5.403 5.695,-0.011C6.788,0 7.907,-0.115 9.045,-0.31C9.572,-6.939 2.913,-10.858 0,-15.712" style="fill:rgb(14,132,124);fill-rule:nonzero;"/></g><g transform="matrix(3.23256,0,0,3.23256,584.875,657.299)"><path d="M0,-1.939C1.455,-9.43 9.374,-13.139 16.569,-13.072C13.094,-14.55 9.442,-15.28 5.557,-15.479C-0.168,-13.572 -4.423,-8.364 -5.987,-1.704C-2.539,2.635 0.862,7.715 1.654,13.54C3.589,12.83 5.571,12.014 7.595,11.194C6.768,5.962 3.764,1.428 0,-1.939" style="fill:rgb(14,132,124);fill-rule:nonzero;"/></g><g transform="matrix(3.23256,0,0,3.23256,597.249,680.527)"><path d="M0,-9.54C6.084,-8.019 8.692,-3.187 9.155,1.917C10.888,1.296 12.644,0.731 14.421,0.285C12.124,-5.565 9.646,-11.457 0,-9.54" style="fill:rgb(14,132,124);fill-rule:nonzero;"/></g><g transform="matrix(3.23256,0,0,3.23256,446.397,647.611)"><path d="M0,50.092C-0.01,45.286 0.472,40.592 1.337,35.919C2.217,31.264 3.528,26.665 5.493,22.322C7.448,17.993 10.117,13.899 13.697,10.69C15.473,9.08 17.486,7.735 19.581,6.622C21.674,5.492 23.87,4.581 26.104,3.81C30.573,2.256 35.213,1.283 39.885,0.713C44.559,0.149 49.282,0 53.975,0.307C58.661,0.619 63.346,1.37 67.797,2.901C70.016,3.67 72.178,4.645 74.126,5.962C76.065,7.275 77.798,8.967 78.875,11.06C77.761,8.986 76.007,7.336 74.057,6.067C72.098,4.792 69.934,3.863 67.718,3.137C63.271,1.696 58.604,1.033 53.946,0.807C49.282,0.584 44.6,0.816 39.982,1.456C35.367,2.104 30.799,3.149 26.44,4.751C22.096,6.343 17.885,8.488 14.542,11.611C11.179,14.734 8.681,18.706 6.863,22.931C5.037,27.166 3.838,31.667 3.06,36.228C2.295,40.78 1.907,45.461 1.999,50.027L0,50.092Z" style="fill:rgb(14,132,124);fill-rule:nonzero;"/></g><g transform="matrix(3.23256,0,0,3.23256,445.34,457.633)"><path d="M0,40.41C0,40.41 1.316,49.33 -12.529,48.471C-33.101,47.194 -26.874,20.08 -31.44,6.83C-36.007,-6.42 -47.757,-8.92 -47.757,-8.92C-47.757,-8.92 -11.861,-5.17 1.316,12.58C14.493,30.33 10.007,43.075 0,40.41" style="fill:rgb(63,160,146);fill-rule:nonzero;"/></g><g transform="matrix(3.23256,0,0,3.23256,409.87,493.765)"><path d="M0,-8.911C-1.214,-9.602 -2.458,-10.255 -3.722,-10.868C-4.959,-8.765 -6.014,-3.992 -3.666,1.957C-4.777,-4.588 -1.781,-7.681 0,-8.911" style="fill:rgb(14,132,124);fill-rule:nonzero;"/></g><g transform="matrix(3.23256,0,0,3.23256,352.107,515.035)"><path d="M0,8.045C0.204,10.088 0.454,12.114 0.802,14.068C4.536,12.607 14.064,10.094 26.312,15.904C27.129,5.651 30.639,-0.467 32.02,-2.518C31.439,-3.392 30.828,-4.276 30.158,-5.178C29.464,-6.113 28.695,-7 27.883,-7.859C25.674,-5.505 20.924,0.483 22.085,7.447C15.056,5.244 4.42,5.419 0,8.045" style="fill:rgb(14,132,124);fill-rule:nonzero;"/></g><g transform="matrix(3.23256,0,0,3.23256,455.082,451.915)"><path d="M0,112.624C0.987,107.583 1.602,102.385 2.036,97.217C2.462,92.036 2.637,86.834 2.584,81.635C2.48,71.236 1.329,60.837 -1.05,50.706C-2.291,45.654 -3.862,40.685 -5.792,35.852C-7.716,31.015 -10.146,26.391 -12.891,21.968L-15.037,18.704L-17.39,15.585C-18.147,14.521 -19.026,13.559 -19.882,12.576C-20.759,11.612 -21.55,10.567 -22.508,9.681L-25.286,6.925C-26.23,6.026 -27.255,5.215 -28.236,4.355L-29.724,3.082C-30.235,2.678 -30.772,2.306 -31.295,1.915L-34.454,-0.401L-31.258,1.865C-30.728,2.247 -30.185,2.611 -29.666,3.009L-28.156,4.259C-27.16,5.103 -26.12,5.901 -25.159,6.787L-22.33,9.506C-21.354,10.381 -20.543,11.415 -19.648,12.369C-18.773,13.342 -17.874,14.296 -17.097,15.352L-14.681,18.449L-12.47,21.697C-9.639,26.102 -7.116,30.722 -5.099,35.564C-3.076,40.403 -1.412,45.389 -0.08,50.465C2.483,60.642 3.812,71.115 4.084,81.605C4.221,86.852 4.128,92.104 3.781,97.344C3.422,102.591 2.896,107.795 1.959,113.025L0,112.624Z" style="fill:rgb(14,132,124);fill-rule:nonzero;"/></g><g transform="matrix(3.23256,0,0,3.23256,498.407,499.006)"><path d="M0,40.412C0,40.412 -1.316,49.331 12.529,48.473C33.101,47.196 26.874,20.081 31.44,6.831C36.007,-6.419 47.757,-8.919 47.757,-8.919C47.757,-8.919 11.861,-5.169 -1.316,12.581C-14.493,30.331 -10.007,43.077 0,40.412" style="fill:rgb(63,160,146);fill-rule:nonzero;"/></g><g transform="matrix(3.23256,0,0,3.23256,595.851,499.953)"><path d="M0,12.194C0.309,10.139 0.714,8.225 1.296,6.538C1.369,6.326 1.449,6.125 1.526,5.918C-2.482,4.987 -7.236,5.453 -11.535,7.602C-10.708,2.641 -7.524,-1.481 -3.963,-4.509C-7.739,-3.308 -11.661,-1.825 -15.416,-0.006C-18.276,4.564 -17.623,11.114 -19.22,16.703C-12.939,12.215 -7.003,10.797 0,12.194" style="fill:rgb(14,132,124);fill-rule:nonzero;"/></g><g transform="matrix(3.23256,0,0,3.23256,500.272,629.152)"><path d="M0,-4.23C8.309,-3.307 15.753,-0.658 22.357,3.674C24.369,1.489 25.683,-1.336 26.574,-4.513C17.527,-5.676 9.185,-7.904 0,-4.23" style="fill:rgb(14,132,124);fill-rule:nonzero;"/></g><g transform="matrix(3.23256,0,0,3.23256,516.434,576.794)"><path d="M0,0.967C8.114,0.967 16.223,0.174 22.872,5.144C23.085,3.563 23.253,1.954 23.399,0.342C15.913,-2.702 6.857,-4.177 0,0.967" style="fill:rgb(14,132,124);fill-rule:nonzero;"/></g><g transform="matrix(-2.29819,-2.27328,-2.27328,2.29819,471.225,571.316)"><path d="M1.748,-21.353C2.191,-18.162 2.275,-14.995 1.841,-11.947C1.813,-11.746 1.778,-11.556 1.748,-11.358C-2.274,-7.473 -7.506,-5.138 -13.214,-5.107C-8.04,-10.338 -2.873,-15.575 1.748,-21.353" style="fill:rgb(14,132,124);fill-rule:nonzero;"/></g><g transform="matrix(3.23256,0,0,3.23256,464.716,486.176)"><path d="M0,105.043C-0.113,99.905 0.08,94.837 0.417,89.752C0.762,84.674 1.289,79.61 2.013,74.574C2.737,69.539 3.657,64.531 4.793,59.572C5.957,54.618 7.355,49.72 9.021,44.912C10.664,40.097 12.686,35.409 15.017,30.89C16.146,28.607 17.485,26.44 18.792,24.26L20.933,21.101C21.631,20.037 22.471,19.075 23.233,18.058C26.417,14.103 29.964,10.403 34.042,7.362C38.115,4.323 42.588,1.857 47.307,0C42.618,1.935 38.199,4.47 34.195,7.561C30.186,10.653 26.722,14.389 23.627,18.365C22.887,19.389 22.07,20.355 21.394,21.422L19.322,24.591C18.06,26.777 16.768,28.946 15.686,31.229C13.447,35.75 11.519,40.43 9.968,45.234C8.394,50.03 7.086,54.912 6.013,59.845C4.966,64.784 4.135,69.768 3.499,74.775C2.255,84.781 1.67,94.928 1.999,104.956L0,105.043Z" style="fill:rgb(14,132,124);fill-rule:nonzero;"/></g><g transform="matrix(-0.429726,-3.20387,-3.20387,0.429726,325.08,658.181)"><path d="M-36.963,-25.592C-36.963,-25.592 -50.729,-28.118 -46.756,-11.667C-42.784,4.785 -28.649,21.741 -36.963,38.747C-17.487,14.695 -12.834,3.463 -17.688,-14.977C-22.176,-32.032 -34.325,-28.929 -36.963,-25.592" style="fill:rgb(63,160,146);fill-rule:nonzero;"/></g><g transform="matrix(3.23256,0,0,3.23256,350.511,735.083)"><path d="M0,-8.659C-4.095,-8.442 -7.885,-7.621 -11.653,-6.078C-5.067,-6.476 3.207,-5.1 7.579,0C7.579,-4.716 3.659,-6.763 0,-8.659" style="fill:rgb(14,132,124);fill-rule:nonzero;"/></g><g transform="matrix(-1.6742,-2.76523,-2.76523,1.6742,215.634,733.351)"><path d="M-16.043,-27.755C-14.268,-24.824 -11.576,-21.284 -10.519,-17.919C-11.058,-10.618 -12.947,-1.92 -16.043,9.284C-15.761,2.816 -17.886,-2.595 -21.211,-7.457C-15.86,-12.596 -15.877,-21.189 -16.043,-27.755" style="fill:rgb(14,132,124);fill-rule:nonzero;"/></g><g transform="matrix(3.23256,0,0,3.23256,290.505,736.588)"><path d="M0,13.972C2.852,14.471 5.724,15.17 8.596,15.937C11.737,6.889 21.644,3.284 29.892,0.534C18.231,-1.965 5.19,3.866 0,13.972" style="fill:rgb(14,132,124);fill-rule:nonzero;"/></g><g transform="matrix(3.23256,0,0,3.23256,454.6,727.909)"><path d="M0,30.492C-1.396,25.82 -3.616,21.234 -6.368,17.112C-9.146,12.994 -12.559,9.247 -16.682,6.434C-18.737,5.027 -20.948,3.847 -23.267,2.914C-25.602,2.018 -28.039,1.407 -30.518,1.007C-35.497,0.339 -40.603,0.682 -45.538,1.768C-40.643,0.521 -35.527,0 -30.454,0.511C-27.928,0.833 -25.425,1.373 -23.005,2.211C-20.602,3.087 -18.292,4.222 -16.128,5.601C-11.789,8.357 -8.14,12.104 -5.137,16.255C-2.148,20.446 0.258,24.981 1.924,29.946L0,30.492Z" style="fill:rgb(14,132,124);fill-rule:nonzero;"/></g><g transform="matrix(0.860225,-0.177948,0.440683,0.624997,-1688.65,-110.576)"><ellipse cx="1283.4" cy="2205.15" rx="179.108" ry="57.923" style="fill:url(#_Linear10);"/></g><g transform="matrix(0.431226,-0.0892044,0.324441,0.460137,-808.971,113.077)"><ellipse cx="1283.4" cy="2205.15" rx="179.108" ry="57.923" style="fill:url(#_Linear11);"/></g><g transform="matrix(0.65553,0,0,0.65553,-430.051,-387.091)"><path d="M1213.81,1844.86L1272.13,2128.9C1272.13,2128.9 1357.5,2184.91 1480.74,2124.39L1512.58,1847.92C1512.58,1847.92 1304.04,1896.75 1213.81,1844.86Z" style="fill:rgb(236,97,152);"/></g><g transform="matrix(0.65553,0,0,0.65553,-430.051,-387.091)"><path d="M1320.05,1868.47C1306.61,1868.03 1293.36,1867.01 1280.65,1865.26C1279.54,1868.02 1278.34,1870.67 1277.03,1873.18L1243.64,1863.43C1251.57,1904.02 1263.24,1959.25 1301.21,1982.56C1306.49,1985.8 1314.23,1998.1 1320.16,1998.84C1322.12,1999.09 1319.03,1995.04 1318.67,1993.09C1317.89,1988.83 1317.07,1984.53 1316.4,1980.26C1314.56,1968.54 1313.57,1956.93 1312.89,1945.09C1311.36,1918.81 1313.22,1893.27 1320.05,1868.47ZM1497.43,1979.42L1512.58,1847.92C1512.58,1847.92 1466.34,1858.75 1407.97,1864.79C1410.51,1864.87 1413.04,1865.01 1415.58,1865.23C1416.29,1865.29 1414.26,1869.15 1414.15,1869.73C1413.45,1873.44 1413.58,1878.25 1413.9,1881.99C1414.55,1889.57 1421.53,1897.75 1426.6,1902.9C1458.17,1934.96 1479.06,1942.6 1497.43,1979.42Z" style="fill-opacity:0.21;"/></g><g transform="matrix(0.65553,0,0,0.65553,-430.051,-387.091)"><path d="M1484.22,2094.19L1480.74,2124.39C1357.5,2184.91 1272.13,2128.9 1272.13,2128.9L1213.81,1844.86C1224.6,1851.06 1237.07,1855.82 1250.66,1859.4C1260.61,1883.59 1275.12,1906.9 1286.59,1929.59C1316.55,1988.83 1355.9,2061.41 1422.91,2084.31C1443.02,2091.18 1463.54,2093.79 1484.22,2094.19Z" style="fill-opacity:0.16;"/></g><g transform="matrix(0.65553,0,0,1.04809,-422.605,-1197.89)"><ellipse cx="1359" cy="1924.58" rx="155.723" ry="34.759" style="fill:white;"/></g><g transform="matrix(0.601358,0,0,0.874651,-348.717,-865.055)"><ellipse cx="1359" cy="1924.58" rx="155.723" ry="34.759" style="fill:rgb(169,58,102);"/></g><g transform="matrix(0.65553,0,0,0.65553,-430.051,-387.091)"><path d="M1238.04,1855.94C1258.66,1838.55 1310.62,1826.2 1371.4,1826.2C1431.58,1826.2 1483.11,1838.31 1504.14,1855.42C1483.52,1872.8 1431.55,1885.15 1370.77,1885.15C1310.6,1885.15 1259.07,1873.05 1238.04,1855.94Z" style="fill:rgb(35,79,76);"/></g><g transform="matrix(-3.15067,0.723002,0.723002,3.15067,610.14,905.537)"><path d="M10.72,-56.93C10.72,-56.93 26.757,-50.262 19.99,-32.806C13.223,-15.351 4.08,-8.757 10.72,8.955C-8.551,-15.973 -15.689,-32.033 -12.545,-44.297C-9.4,-56.561 3.783,-64.059 10.72,-56.93" style="fill:rgb(63,160,146);fill-rule:nonzero;"/></g><g transform="matrix(3.23256,0,0,3.23256,551.993,799.544)"><path d="M0,-18.941C-4.995,-17.832 -9.368,-14.561 -12.104,-10.336C-12.93,-7.42 -13.035,-3.942 -11.587,0C-10.382,-7.469 -6.521,-14.866 0,-18.941" style="fill:rgb(14,132,124);fill-rule:nonzero;"/></g><g transform="matrix(-2.74909,1.70059,1.70059,2.74909,583.303,764.618)"><path d="M-10.059,-1.75C-7.359,-5.143 -3.528,-7.386 2.133,-7.359C-3.282,-4.01 -8.351,-0.116 -10.059,5.393C-10.159,4.781 -10.242,4.169 -10.288,3.558C-10.429,1.747 -10.336,-0.036 -10.059,-1.75" style="fill:rgb(14,132,124);fill-rule:nonzero;"/></g><g transform="matrix(3.23256,0,0,3.23256,590.783,908.032)"><path d="M0,-19.502C0,-14.735 -1.897,-10.601 -4.681,-6.594C-3.686,-4.58 -2.937,-2.428 -2.504,0C-0.938,-6.338 0.453,-12.716 0,-19.502" style="fill:rgb(14,132,124);fill-rule:nonzero;"/></g><g transform="matrix(3.23256,0,0,3.23256,577.853,867.858)"><path d="M0,-29.074C-0.873,-21.218 -4.034,-12.6 -10.811,-7.876C-8.464,-5.02 -6.271,-2.506 -4.379,0C0.394,-5.665 4.402,-12.869 2,-20.074C7.677,-18.453 11.38,-13.542 13.111,-8.01C13.778,-10.694 14.275,-13.22 14.595,-15.588C11.837,-21.996 7.23,-27.629 0,-29.074" style="fill:rgb(14,132,124);fill-rule:nonzero;"/></g><g transform="matrix(3.23256,0,0,3.23256,590.42,805.187)"><path d="M0,6.448C-0.376,2.657 -1.002,-1.12 -2.007,-4.812C-2.997,-8.503 -4.34,-12.127 -6.3,-15.467C-7.304,-17.118 -8.467,-18.7 -9.922,-20.041C-11.363,-21.364 -13.169,-22.498 -15.263,-22.703C-15.521,-22.725 -15.78,-22.756 -16.039,-22.768L-16.818,-22.71C-17.345,-22.707 -17.833,-22.507 -18.341,-22.403C-18.824,-22.229 -19.301,-22.027 -19.759,-21.802C-20.186,-21.531 -20.649,-21.298 -21.044,-20.988C-21.428,-20.672 -21.853,-20.369 -22.202,-20.038L-23.25,-19.043C-23.965,-18.395 -24.628,-17.696 -25.282,-16.987C-27.905,-14.16 -30.237,-11.047 -32.132,-7.673C-33.393,-5.418 -35.698,1.308 -36.582,3.749L-34.555,3.749C-33.799,1.639 -31.658,-4.851 -30.601,-6.825C-28.846,-10.119 -26.656,-13.18 -24.173,-15.977C-23.554,-16.678 -22.925,-17.371 -22.246,-18.016L-21.248,-19.005C-20.916,-19.334 -20.563,-19.587 -20.223,-19.885C-18.828,-20.996 -17.11,-21.627 -15.388,-21.459C-13.656,-21.338 -12.031,-20.399 -10.672,-19.202C-9.303,-17.996 -8.154,-16.515 -7.153,-14.945C-6.171,-13.356 -5.34,-11.669 -4.595,-9.943C-3.893,-8.198 -3.24,-6.428 -2.729,-4.61C-1.658,-0.988 -0.954,2.744 -0.497,6.504C0.409,14.028 0.297,21.674 -0.611,29.216C0.462,21.695 0.745,14.038 0,6.448" style="fill:rgb(14,132,124);fill-rule:nonzero;"/></g><g transform="matrix(-3.15961,-0.682907,-0.682907,3.15961,426.581,848.86)"><path d="M-3.168,-45.619C-3.168,-45.619 4.842,-54.572 14.977,-46.243C25.113,-37.914 13.96,-5.028 -3.168,11.391C-3.828,-3.416 -6.813,-19.307 -16.446,-29.709C-26.078,-40.111 -13.68,-50.338 -3.168,-45.619" style="fill:rgb(63,160,146);fill-rule:nonzero;"/></g><g transform="matrix(3.23256,0,0,3.23256,398.135,813.085)"><path d="M0,1.493C1.052,5.287 2.367,9.049 3.929,12.623C4.812,4.311 7.379,-3.087 10.596,-11.13C5.588,-8.626 1.289,-4.028 0,1.493" style="fill:rgb(14,132,124);fill-rule:nonzero;"/></g><g transform="matrix(-3.23218,0.0500123,0.0500123,3.23218,428.643,887.005)"><path d="M-0.052,-21.521C2.076,-16.103 2.814,-10.602 3.081,-5.451C2.108,-3.544 1.067,-1.713 -0.052,0.003C-0.868,-2.909 -1.804,-5.837 -2.853,-8.728C-1.691,-12.955 0.127,-17.169 -0.052,-21.521" style="fill:rgb(14,132,124);fill-rule:nonzero;"/></g><g transform="matrix(3.23256,0,0,3.23256,455.016,780.792)"><path d="M0,-18.14C-3.637,-23.596 -13.051,-23.252 -19.241,-19.388C-20.567,-14.921 -20.87,-9.109 -20.275,-2.786C-16.798,-8.474 -10.651,-12.553 -5,-11.14C0.095,-9.443 1.587,-1.261 3.757,5.456C5.157,3.496 6.674,1.652 8.33,-0.035C7.144,-6.872 4.373,-13.039 0,-18.14" style="fill:rgb(14,132,124);fill-rule:nonzero;"/></g><g transform="matrix(3.23256,0,0,3.23256,475.628,862.378)"><path d="M0,-48.622C-1.007,-48.485 -2.106,-48.064 -3.068,-47.53C-4.027,-46.962 -4.968,-46.331 -5.766,-45.528C-7.415,-43.981 -8.703,-42.063 -9.735,-40.028L-10.472,-38.476L-11.076,-36.864L-11.379,-36.058L-11.618,-35.228L-12.095,-33.568C-12.377,-32.451 -12.581,-31.314 -12.828,-30.187L-13.389,-26.757C-14.07,-22.172 -14.512,-17.55 -14.725,-12.915C-14.917,-8.282 -14.923,-3.628 -14.482,0.996C-15.006,-3.62 -15.084,-8.279 -14.974,-12.924C-14.845,-17.57 -14.485,-22.213 -13.884,-26.826L-13.383,-30.28C-13.153,-31.425 -12.967,-32.58 -12.701,-33.718L-12.247,-35.414L-12.019,-36.263L-11.725,-37.092L-11.136,-38.751L-10.408,-40.359C-9.383,-42.474 -8.083,-44.493 -6.371,-46.161C-4.65,-47.81 -2.611,-49.192 -0.085,-49.618L0,-48.622Z" style="fill:rgb(14,132,124);fill-rule:nonzero;"/></g></g></g></g></g></g><defs><linearGradient id="_Linear2" x1="0" y1="0" x2="1" y2="0" gradientUnits="userSpaceOnUse" gradientTransform="matrix(-702.655,2295.08,-2295.08,-702.655,2212.82,910.36)"><stop offset="0" style="stop-color:black;stop-opacity:0"/><stop offset="1" style="stop-color:black;stop-opacity:1"/></linearGradient><linearGradient id="_Linear3" x1="0" y1="0" x2="1" y2="0" gradientUnits="userSpaceOnUse" gradientTransform="matrix(-2565.98,2746.3,-2746.3,-2565.98,1511.16,1021.08)"><stop offset="0" style="stop-color:rgb(90,166,225);stop-opacity:0"/><stop offset="0.44" style="stop-color:rgb(90,166,225);stop-opacity:0.3"/><stop offset="1" style="stop-color:rgb(90,166,225);stop-opacity:1"/></linearGradient><linearGradient id="_Linear4" x1="0" y1="0" x2="1" y2="0" gradientUnits="userSpaceOnUse" gradientTransform="matrix(263.198,-370.66,370.66,263.198,2038.94,2316.71)"><stop offset="0" style="stop-color:black;stop-opacity:0"/><stop offset="1" style="stop-color:black;stop-opacity:1"/></linearGradient><linearGradient id="_Linear5" x1="0" y1="0" x2="1" y2="0" gradientUnits="userSpaceOnUse" gradientTransform="matrix(263.198,-370.66,370.66,263.198,2038.94,2316.71)"><stop offset="0" style="stop-color:black;stop-opacity:0"/><stop offset="1" style="stop-color:black;stop-opacity:1"/></linearGradient><linearGradient id="_Linear6" x1="0" y1="0" x2="1" y2="0" gradientUnits="userSpaceOnUse" gradientTransform="matrix(107.738,-194.711,194.711,107.738,2259.56,2104.98)"><stop offset="0" style="stop-color:white;stop-opacity:0"/><stop offset="1" style="stop-color:white;stop-opacity:1"/></linearGradient><linearGradient id="_Linear7" x1="0" y1="0" x2="1" y2="0" gradientUnits="userSpaceOnUse" gradientTransform="matrix(263.198,-370.66,370.66,263.198,2038.94,2316.71)"><stop offset="0" style="stop-color:black;stop-opacity:0"/><stop offset="1" style="stop-color:black;stop-opacity:1"/></linearGradient><linearGradient id="_Linear8" x1="0" y1="0" x2="1" y2="0" gradientUnits="userSpaceOnUse" gradientTransform="matrix(263.198,-370.66,370.66,263.198,2038.94,2316.71)"><stop offset="0" style="stop-color:black;stop-opacity:0"/><stop offset="1" style="stop-color:black;stop-opacity:1"/></linearGradient><linearGradient id="_Linear9" x1="0" y1="0" x2="1" y2="0" gradientUnits="userSpaceOnUse" gradientTransform="matrix(107.738,-194.711,194.711,107.738,2259.56,2104.98)"><stop offset="0" style="stop-color:white;stop-opacity:0"/><stop offset="1" style="stop-color:white;stop-opacity:1"/></linearGradient><linearGradient id="_Linear10" x1="0" y1="0" x2="1" y2="0" gradientUnits="userSpaceOnUse" gradientTransform="matrix(421.14,-190.864,-1.93027,444.517,1184.13,2225.37)"><stop offset="0" style="stop-color:black;stop-opacity:0"/><stop offset="1" style="stop-color:black;stop-opacity:1"/></linearGradient><linearGradient id="_Linear11" x1="0" y1="0" x2="1" y2="0" gradientUnits="userSpaceOnUse" gradientTransform="matrix(646.799,-120.572,-113.137,499.212,1082.72,2282.15)"><stop offset="0" style="stop-color:black;stop-opacity:0"/><stop offset="0.44" style="stop-color:black;stop-opacity:0.3"/><stop offset="1" style="stop-color:black;stop-opacity:1"/></linearGradient></defs></svg>