<svg id="Layer_1" data-name="Layer 1" xmlns="http://www.w3.org/2000/svg" xmlns:xlink="http://www.w3.org/1999/xlink" viewBox="0 0 4500 2500"><defs><style>.cls-1{fill:none;}.cls-2{fill:#aed3f0;}.cls-3{fill:#c3dcf3;}.cls-10,.cls-11,.cls-12,.cls-14,.cls-16,.cls-17,.cls-18,.cls-19,.cls-20,.cls-21,.cls-22,.cls-23,.cls-24,.cls-25,.cls-26,.cls-27,.cls-28,.cls-29,.cls-3,.cls-30,.cls-31,.cls-32,.cls-33,.cls-34,.cls-35,.cls-36,.cls-41,.cls-42,.cls-44,.cls-5,.cls-6,.cls-7,.cls-8,.cls-9{fill-rule:evenodd;}.cls-4{clip-path:url(#clip-path);}.cls-5{fill:url(#linear-gradient);}.cls-6{fill:#c8e1f5;}.cls-11,.cls-13,.cls-7{fill:#fff;}.cls-7{fill-opacity:0.45;}.cls-8{fill:url(#linear-gradient-2);}.cls-9{fill-opacity:0.1;}.cls-10{fill:#e8f6ff;}.cls-12{fill:#bbe3f8;}.cls-14{fill:#bae4ff;}.cls-15,.cls-20{fill-opacity:0.13;}.cls-16{fill:#d9effb;}.cls-17{fill:url(#linear-gradient-3);}.cls-18{fill:url(#linear-gradient-4);}.cls-19{fill:#44ae9e;}.cls-21{fill:#80cdc2;}.cls-22{fill:url(#linear-gradient-5);}.cls-23{fill:url(#linear-gradient-6);}.cls-24{fill:url(#linear-gradient-7);}.cls-25{fill:url(#linear-gradient-8);}.cls-26{fill-opacity:0.25;}.cls-27{fill:#c0175a;}.cls-28{fill:#ec6198;}.cls-29{fill:#ffd3e5;}.cls-30{fill:#245b53;}.cls-31,.cls-37{fill:#3fa092;}.cls-32{fill:#378c80;}.cls-33{fill:#4bb8a8;}.cls-34{fill:#afe7df;}.cls-35{fill:#35877b;}.cls-36{fill:#3e9e8f;}.cls-38{fill:#0e847c;}.cls-39{fill:url(#linear-gradient-9);}.cls-40{fill:url(#linear-gradient-10);}.cls-41{fill-opacity:0.21;}.cls-42{fill-opacity:0.16;}.cls-43{fill:#a93a66;}.cls-44{fill:#234f4c;}</style><clipPath id="clip-path"><rect class="cls-1" width="4500" height="2500"/></clipPath><linearGradient id="linear-gradient" x1="1289.81" y1="1789.47" x2="1290.99" y2="1789.47" gradientTransform="matrix(-702.66, 2295.08, 2295.08, 702.66, -3198265.54, -4216785.44)" gradientUnits="userSpaceOnUse"><stop offset="0" stop-opacity="0"/><stop offset="1"/></linearGradient><linearGradient id="linear-gradient-2" x1="1290.06" y1="1789.91" x2="1291.24" y2="1789.91" gradientTransform="matrix(-2565.98, 2746.3, 2746.3, 2565.98, -1602961.76, -8134100.14)" gradientUnits="userSpaceOnUse"><stop offset="0" stop-color="#5aa6e1" stop-opacity="0"/><stop offset="0.44" stop-color="#5aa6e1" stop-opacity="0.3"/><stop offset="1" stop-color="#5aa6e1"/></linearGradient><linearGradient id="linear-gradient-3" x1="1289.88" y1="1791.21" x2="1291.06" y2="1791.21" gradientTransform="matrix(560.02, -788.68, -788.68, -560.02, 692465.27, 2022418.64)" xlink:href="#linear-gradient"/><linearGradient id="linear-gradient-4" x1="1289.88" y1="1791.21" x2="1291.06" y2="1791.21" gradientTransform="matrix(560.02, -788.68, -788.68, -560.02, 692465.27, 2022418.64)" xlink:href="#linear-gradient"/><linearGradient id="linear-gradient-5" x1="1290.28" y1="1792.68" x2="1291.47" y2="1792.68" gradientTransform="matrix(229.24, -414.3, -414.3, -229.24, 449507.12, 946920.22)" gradientUnits="userSpaceOnUse"><stop offset="0" stop-color="#fff" stop-opacity="0"/><stop offset="1" stop-color="#fff"/></linearGradient><linearGradient id="linear-gradient-6" x1="1289.9" y1="1790.47" x2="1291.08" y2="1790.47" gradientTransform="matrix(1187.32, -1672.09, -1672.09, -1187.32, 1464920.03, 4285674.45)" xlink:href="#linear-gradient"/><linearGradient id="linear-gradient-7" x1="1289.9" y1="1790.47" x2="1291.08" y2="1790.47" gradientTransform="matrix(1187.32, -1672.09, -1672.09, -1187.32, 1464920.03, 4285674.45)" xlink:href="#linear-gradient"/><linearGradient id="linear-gradient-8" x1="1290.16" y1="1791.16" x2="1291.35" y2="1791.16" gradientTransform="matrix(486.02, -878.36, -878.36, -486.02, 949819.36, 2005487.63)" xlink:href="#linear-gradient-5"/><linearGradient id="linear-gradient-9" x1="1289.27" y1="1791.42" x2="1290.45" y2="1791.42" gradientTransform="matrix(781.37, -363.62, -363.62, -781.38, -355005.55, 1870130.41)" xlink:href="#linear-gradient"/><linearGradient id="linear-gradient-10" x1="1288.81" y1="1791.79" x2="1289.99" y2="1791.79" gradientTransform="matrix(642.16, -203.39, -203.39, -642.16, -461976.34, 1414193.5)" gradientUnits="userSpaceOnUse"><stop offset="0" stop-opacity="0"/><stop offset="0.44" stop-opacity="0.3"/><stop offset="1"/></linearGradient></defs><g id="c85"><rect class="cls-2" width="4500" height="2500"/><path class="cls-3" d="M825.53,2500q9.4-21.7,20.11-42.25c123.67-237.16,443.5-414.77,686.14-497.1,244.74-83,582.24-98.84,832.36-33.78,182.11,47.36,369.13,76.28,549.93,127.11,390.31,109.76,881.58,337.74,1294.46,218.52,95.47-27.57,204.66-70.95,291.47-130V2500ZM4500,521.47C4365.74,411.6,4198.51,367,4029.29,335.25,3237.41,186.68,2683.62,499.12,1921.58,587.41,1325.76,656.43,746.07,408.56,321,0H4500Z"/><rect class="cls-1" width="4500" height="2500"/><g class="cls-4"><path class="cls-5" d="M-47.61,1105.18l4682.88,223.75L4561.14,1538l-4605.78-324Z"/><path class="cls-6" d="M-125.43,1102,4674,1462.78,4602,2579.32s-4579.73-.78-4609.72-20.2S-125.43,1102-125.43,1102Z"/><path class="cls-7" d="M-286.54,1272.17l155.17-172.34,17.76,1.37-155.18,172.34,190.93,14.65L77.31,1115.84l17.76,1.37L-60.11,1289.55l190.93,14.67L286,1131.86l17.76,1.37L148.57,1305.57l190.93,14.67,155.17-172.37,17.76,1.37L357.26,1321.58l190.92,14.67,155.18-172.34,17.75,1.35L565.94,1337.6l190.92,14.67L912,1179.92l17.75,1.35L774.62,1353.61l190.92,14.67,155.18-172.34,17.75,1.35L983.3,1369.63l190.93,14.67L1329.4,1212l17.75,1.35L1192,1385.66l190.93,14.65L1538.08,1228l17.76,1.37-155.18,172.34,190.93,14.65L1746.79,1244l17.73,1.37-155.18,172.34,190.93,14.65L1955.47,1260l17.73,1.38L1818,1433.71,2009,1448.38,2164.15,1276l17.73,1.37-155.17,172.34,190.92,14.67L2372.83,1292l17.73,1.36-155.17,172.34,190.92,14.66,155.2-172.34,17.73,1.35-155.17,172.34L2655.76,1498,2640.51,1515l-211.69-16.24L2302.52,1639l211.7,16.26L2499,1672.17l-211.7-16.26L2161,1796.19l211.7,16.24-15.26,16.94-211.69-16.24-126.3,140.26,211.7,16.26-15.25,16.94-211.7-16.24-126.3,140.26,211.7,16.24-15.28,17-211.67-16.26-126.3,140.28,211.7,16.24L1932.74,2301l-211.67-16.24L1594.77,2425l211.7,16.26-15.25,16.94L1579.53,2442,1416.36,2623.2l-17.73-1.37,163.14-181.21L1370.85,2426l-163.17,181.19-17.76-1.35,163.17-181.21-190.93-14.67L999,2591.15l-17.76-1.34,163.17-181.22-190.93-14.66L790.32,2575.14l-17.76-1.35,163.17-181.21L744.8,2377.91,581.63,2559.13l-17.75-1.35,163.17-181.22L536.12,2361.9,373,2543.11l-17.75-1.37,163.17-181.19-190.93-14.67L164.27,2527.1l-17.75-1.37,163.16-181.22-190.92-14.64L-44.41,2511.08l-17.74-1.37L101,2328.5l-190.94-14.65-163.15,181.22-17.74-1.37,163.15-181.22-190.94-14.64L-461.77,2479l-17.75-1.35,163.16-181.21L-507.3,2281.8-670.45,2463l-17.75-1.35L-525,2280.46-716,2265.79-879.14,2447l-17.74-1.35,163.16-181.21-190.94-14.66L-1087.82,2431l-17.74-1.35,163.15-181.21-190.94-14.67L-1296.5,2415l-17.74-1.37,163.15-181.21-254.26-19.51,15.26-16.94,254.26,19.51,126.29-140.26-254.26-19.51,15.25-17,254.27,19.53L-868,1918l-254.26-19.51,15.26-16.94L-852.73,1901l126.29-140.26-254.26-19.53,15.25-16.94,254.26,19.51,126.3-140.26L-839.15,1584l15.26-16.94,254.26,19.51,126.29-140.28-254.26-19.51,15.25-16.94,254.26,19.51,126.3-140.26-254.27-19.53,15.26-16.94ZM1386.09,2409,1577,2423.68l126.3-140.28-190.93-14.64Zm-208.68-16,190.93,14.67,126.3-140.28-190.93-14.65Zm-208.68-16,190.93,14.66L1286,2251.37,1095,2236.73Zm558.91-125.17,190.93,14.64,126.3-140.26-190.93-14.66ZM760.05,2361,951,2375.64l126.3-140.28-190.93-14.65ZM1319,2235.8l190.93,14.65,126.3-140.26-190.93-14.67ZM551.37,2345l190.92,14.64,126.3-140.26-190.92-14.66Zm558.91-125.19,190.93,14.66,126.29-140.28-190.92-14.64ZM342.69,2328.94l190.92,14.65,126.3-140.26L469,2188.66Zm1326.5-234.34,190.93,14.64L1986.42,1969l-190.93-14.66ZM901.6,2203.75l190.93,14.67,126.29-140.28-190.92-14.65ZM134,2312.93l190.92,14.65,126.3-140.27L260.3,2172.65Zm1326.5-234.35,190.93,14.65L1777.74,1953l-190.93-14.67ZM692.92,2187.74l190.93,14.66,126.29-140.28-190.92-14.64Zm-767.6,109.15,190.93,14.67,126.3-140.26L51.62,2156.63Zm1326.51-234.32,190.92,14.64L1569.05,1937l-190.92-14.66ZM484.24,2171.72l190.92,14.65,126.3-140.26-190.92-14.65Zm-767.6,109.16,190.94,14.66L33.87,2155.26l-190.94-14.64Zm2094.1-343.5L2001.67,1952,2128,1811.76,1937,1797.12Zm-767.59,109.17,190.92,14.65,126.3-140.26-190.92-14.67ZM275.56,2155.71l190.92,14.64,126.3-140.26-190.93-14.66ZM-492,2264.87l191,14.66,126.28-140.28-190.93-14.65Zm2094.11-343.51L1793,1936l126.29-140.28-190.92-14.65ZM834.47,2030.52l190.92,14.67,126.3-140.27-190.92-14.66ZM66.88,2139.69l190.92,14.65,126.3-140.26-190.93-14.67Zm-767.61,109.16,190.94,14.67,126.29-140.29-190.93-14.64Zm2094.11-343.5L1584.31,1920l126.29-140.28-190.92-14.64ZM625.78,2014.5l190.93,14.67L943,1888.91l-190.93-14.67Zm-767.59,109.18,190.93,14.65,126.3-140.27L-15.51,1983.4Zm-767.6,109.16,190.94,14.64,126.29-140.26-190.93-14.64Zm2861.7-452.66,190.95,14.64,126.27-140.26-190.92-14.66ZM1184.7,1889.33,1375.62,1904l126.3-140.26L1311,1749.07ZM417.1,1998.49,608,2013.16l126.3-140.29L543.4,1858.23Zm-767.59,109.17,190.93,14.65,126.3-140.26-190.94-14.67Zm-767.6,109.16,190.94,14.65,126.29-140.26-190.93-14.65Zm2861.7-452.66,190.92,14.65,126.3-140.26-190.92-14.67ZM976,1873.32,1166.94,1888l126.3-140.26L1102.31,1733Zm-767.6,109.15,190.93,14.67,126.3-140.28-190.93-14.65Zm-767.6,109.16,190.94,14.66L-241.95,1966l-190.93-14.67Zm2094.11-343.5,190.92,14.67,126.3-140.29-190.92-14.64ZM767.34,1857.3,958.26,1872l126.3-140.26L893.63,1717ZM-.26,1966.46l190.93,14.67L317,1840.84,126,1826.2Zm-767.6,109.16,190.94,14.66L-450.63,1950l-190.93-14.64ZM2093.84,1623l190.92,14.64,126.3-140.26-190.93-14.66Zm-767.6,109.15,190.93,14.67,126.3-140.28-190.93-14.65ZM558.65,1841.29l190.93,14.65,126.3-140.27L685,1701Zm-767.59,109.16L-18,1965.09l126.3-140.26-190.93-14.67Zm-767.6,109.15,190.94,14.67L-659.31,1934l-190.94-14.64Zm2861.7-452.66,190.92,14.65,126.3-140.26-190.93-14.67Zm-767.6,109.16,190.93,14.67,126.3-140.29-190.93-14.64ZM350,1825.25l190.93,14.67,126.3-140.28L476.27,1685Zm-767.59,109.18,190.93,14.64,126.29-140.26-190.94-14.66Zm2094.1-343.5,190.92,14.64,126.3-140.26-190.93-14.66Zm-767.6,109.15,190.93,14.65,126.3-140.26-190.93-14.65ZM141.29,1809.24l190.93,14.67,126.29-140.29L267.59,1669Zm-767.6,109.18,190.94,14.64,126.29-140.26L-500,1778.14ZM1467.8,1574.91l190.92,14.65L1785,1449.3l-190.93-14.67ZM700.2,1684.07l190.93,14.65,126.3-140.27L826.5,1543.81ZM-67.39,1793.22l190.93,14.67,126.29-140.28L58.91,1653ZM-835,1902.38-644,1917.05l126.29-140.26-190.94-14.67Zm2094.1-343.5L1450,1573.55l126.3-140.27-190.93-14.66ZM491.52,1668.05l190.93,14.65,126.3-140.26-190.93-14.67Zm-767.6,109.16,190.94,14.67L41.15,1651.59-149.78,1637Zm1326.51-234.35,190.93,14.67,126.3-140.28-190.93-14.65ZM282.84,1652l190.93,14.65,126.3-140.27-190.93-14.66Zm-767.6,109.16,190.94,14.66,126.29-140.28-190.94-14.64ZM841.75,1526.85l190.93,14.67L1159,1401.23l-190.92-14.64ZM74.16,1636l190.92,14.65,126.3-140.26-190.92-14.67Zm-767.6,109.16,190.94,14.65,126.29-140.26-190.94-14.67ZM633.07,1510.83,824,1525.5l126.29-140.28-190.92-14.65ZM-134.52,1620,56.4,1634.66l126.3-140.29L-8.22,1479.73Zm558.91-125.17,190.92,14.65,126.3-140.27-190.92-14.64ZM-343.21,1604l190.94,14.66L-26,1478.36l-190.94-14.65ZM215.71,1478.8l190.92,14.65,126.3-140.26L342,1338.52ZM-551.89,1588l190.94,14.67,126.29-140.29L-425.6,1447.7ZM7,1462.79,198,1477.44l126.3-140.27-190.93-14.66Zm-208.69-16,190.93,14.64,126.3-140.26-190.93-14.67Zm-208.68-16,190.94,14.65,126.29-140.26L-284,1290.48Z"/><path class="cls-7" d="M2703.16,1496.93l155.16-172.34,17.76,1.37L2720.9,1498.3,2911.83,1513,3067,1340.61l17.75,1.36-155.17,172.35L3120.52,1529l155.17-172.36,17.75,1.37-155.17,172.34L3329.2,1545l155.17-172.37,17.75,1.37L3347,1546.35,3537.88,1561l155.17-172.34,17.75,1.35-155.17,172.34L3746.56,1577l155.17-172.35,17.76,1.35-155.18,172.35L3955.24,1593l155.17-172.34,17.76,1.35L3973,1594.39l190.93,14.67,155.17-172.35,17.76,1.35-155.17,172.37,190.92,14.64,155.17-172.34,17.76,1.37-155.17,172.34,190.92,14.65,155.2-172.35,17.73,1.37L4599,1642.46,4790,1657.1l155.2-172.34,17.73,1.37-155.17,172.34,190.93,14.67,155.19-172.37,17.73,1.37L5016.4,1674.49l190.93,14.66,155.2-172.34,17.72,1.35L5225.08,1690.5,5416,1705.17l155.2-172.35,17.72,1.35-155.17,172.35,211.7,16.25-15.25,16.94-211.7-16.24-126.3,140.27,211.7,16.25-15.25,16.94L5277,1880.67,5150.67,2021l211.69,16.23-15.25,16.94-211.7-16.24-126.3,140.26,211.7,16.26-15.25,16.94-211.69-16.24-126.3,140.27,211.69,16.23-15.27,17-211.67-16.27L4726,2492.59l211.69,16.24-15.27,17-211.67-16.25-126.3,140.26,211.7,16.26L4780.92,2683l-211.7-16.24L4406.06,2848l-17.73-1.38,163.13-181.2-190.92-14.65-163.17,181.19-17.75-1.35,163.16-181.21-190.92-14.67-163.17,181.22-17.75-1.35,163.16-181.21-190.93-14.67L3780,2799.9l-17.75-1.35,163.16-181.21-190.93-14.67-163.16,181.22-17.75-1.35,163.16-181.21-190.93-14.67-163.16,181.21-17.76-1.37,163.17-181.19-190.93-14.67L3154,2751.86l-17.76-1.37,163.17-181.21-190.93-14.65-163.16,181.21-17.75-1.37,163.16-181.21-190.94-14.64-163.15,181.21-17.75-1.37L2882,2537.25l-190.93-14.65-163.16,181.19-17.74-1.35,163.15-181.21-190.94-14.66-163.15,181.21-17.74-1.35,163.15-181.21-190.94-14.67-163.15,181.21-17.75-1.35L2256,2489.2,2065,2474.54l-163.15,181.21-17.75-1.35,163.16-181.21-190.94-14.67L1693.2,2639.73l-17.75-1.37,163.15-181.21-254.26-19.51,15.26-16.94,254.26,19.51L1980.15,2300l-254.26-19.51,15.26-17L1995.41,2283l126.29-140.28-254.26-19.51,15.26-16.94L2137,2125.79l126.29-140.26L2009,1966l15.26-16.94,254.26,19.51,126.29-140.26-254.26-19.51,15.26-16.94,254.26,19.51,126.29-140.28-254.26-19.51,15.26-16.94,254.26,19.51,126.29-140.26-254.26-19.53,15.26-16.94ZM4375.79,2633.78l190.93,14.67L4693,2508.17l-190.92-14.65Zm-208.68-16L4358,2632.43l126.3-140.28-190.92-14.65Zm-208.68-16,190.92,14.67,126.3-140.28-190.92-14.65Zm558.91-125.17,190.92,14.65L4834.56,2351l-190.92-14.67Zm-767.59,109.16,190.92,14.66L4067,2460.12,3876,2445.47Zm558.91-125.17,190.92,14.64L4625.88,2335,4435,2320.28Zm-767.6,109.15L3732,2584.37l126.3-140.26-190.93-14.67ZM4100,2444.53l190.93,14.67,126.3-140.28-190.93-14.65Zm-767.59,109.18,190.93,14.64,126.3-140.26-190.93-14.67Zm1326.51-234.35L4849.81,2334l126.3-140.26-190.93-14.67Zm-767.6,109.16,190.93,14.66,126.3-140.28-190.93-14.65ZM3123.7,2537.69l190.93,14.65,126.3-140.26L3250,2397.41Zm1326.51-234.34L4641.13,2318l126.3-140.26-190.93-14.67Zm-767.6,109.15,190.93,14.67,126.3-140.28-190.93-14.65ZM2915,2521.66,3106,2536.32l126.3-140.26-190.93-14.67Zm1326.51-234.33L4432.45,2302l126.3-140.26-190.93-14.67Zm-767.59,109.16,190.93,14.64,126.3-140.26-190.93-14.65Zm-767.6,109.15,190.94,14.67L3023.56,2380l-190.94-14.65Zm2094.1-343.5,190.93,14.67,126.3-140.28-190.93-14.65Zm-767.59,109.18L4223.77,2286l126.3-140.26L4159.14,2131Zm-767.59,109.15,190.93,14.65,126.29-140.26-190.92-14.67Zm-767.6,109.16,190.94,14.66L2814.88,2364l-190.94-14.64Zm2094.1-343.5,190.93,14.66L4909,2020.51l-190.93-14.65Zm-767.59,109.15L4015.09,2270l126.3-140.26L3950.46,2115Zm-767.59,109.18,190.92,14.64,126.3-140.26-190.92-14.67ZM2289,2473.61l190.94,14.67L2606.2,2348l-190.94-14.65Zm2094.1-343.5L4574,2144.78l126.3-140.28-190.93-14.65Zm-767.59,109.16,190.93,14.66,126.3-140.26L3741.78,2099Zm-767.6,109.17,190.93,14.65,126.3-140.26-190.92-14.67ZM2080.29,2457.6l190.93,14.64L2397.52,2332l-190.94-14.64ZM4942,2004.94l191,14.64,126.27-140.25-190.93-14.67ZM4174.39,2114.1l190.93,14.64,126.3-140.26-190.93-14.65ZM3406.8,2223.25l190.93,14.67L3724,2097.64,3533.1,2083Zm-767.6,109.18,190.94,14.64,126.29-140.26-190.94-14.66Zm-767.59,109.15,190.93,14.65L2188.84,2316l-190.94-14.65ZM4733.3,1988.93l190.93,14.64,126.3-140.26-190.93-14.67Zm-767.59,109.15,190.93,14.65,126.3-140.26L4092,1957.8Zm-767.59,109.16L3389,2221.9l126.3-140.28L3324.42,2067Zm-767.6,109.15,190.94,14.67,126.29-140.26-190.94-14.67Zm2094.1-343.5,190.93,14.67,126.29-140.28-190.92-14.65ZM3757,2082.07,3948,2096.71l126.3-140.26-190.92-14.67Zm-767.59,109.15,190.92,14.67,126.3-140.28L3115.74,2051Zm-767.6,109.16L2412.77,2315l126.29-140.28-190.93-14.64Zm2861.69-452.66,190.93,14.65,126.3-140.26-190.93-14.67Zm-767.59,109.16,190.93,14.66,126.29-140.28-190.92-14.65Zm-767.59,109.17,190.92,14.65,126.3-140.26-190.92-14.67Zm-767.6,109.16,190.93,14.64L3098,2049.59l-190.93-14.67Zm-767.6,109.15L2204.09,2299l126.29-140.28-190.93-14.65Zm2861.7-452.65,190.93,14.64,126.3-140.26-190.93-14.67Zm-767.59,109.15,190.93,14.67,126.29-140.28-190.92-14.65ZM3339.67,2050l190.92,14.66,126.3-140.28L3466,1909.75Zm-767.6,109.17L2763,2173.84l126.3-140.26-190.94-14.67Zm2094.1-343.5,190.93,14.65,126.3-140.26-190.93-14.67Zm-767.59,109.16,190.92,14.64,126.3-140.26-190.92-14.65ZM3131,2034l190.93,14.67,126.3-140.28-190.93-14.65Zm-767.59,109.18,190.93,14.64,126.3-140.26-190.94-14.66Zm2094.1-343.5,190.92,14.64,126.3-140.26-190.92-14.67ZM3689.9,1908.83l190.92,14.65,126.3-140.26-190.92-14.65ZM2922.3,2018l190.93,14.66,126.3-140.28-190.93-14.64Zm-767.6,109.15,190.94,14.67,126.3-140.26L2281,1986.88Zm2094.11-343.5,190.92,14.67L4566,1658.05l-190.92-14.67Zm-767.59,109.18,190.92,14.64,126.3-140.26-190.93-14.67ZM2713.62,2002l190.93,14.67,126.3-140.28-190.94-14.65Zm1326.51-234.34,190.92,14.66L4357.35,1642l-190.92-14.65Zm-767.6,109.17,190.93,14.65,126.3-140.26-190.93-14.67ZM2504.94,1986l190.93,14.66,126.3-140.28-190.94-14.64Zm1326.5-234.35,190.93,14.67L4148.67,1626l-190.93-14.65Zm-767.59,109.18,190.93,14.64,126.3-140.26-190.93-14.66Zm-767.6,109.15,190.94,14.65,126.29-140.26-190.94-14.67ZM3622.76,1735.6l190.93,14.66L3940,1610l-190.93-14.64Zm-767.59,109.15,190.93,14.67,126.29-140.28-190.92-14.65Zm558.91-125.17L3605,1734.23,3731.31,1594l-190.93-14.65Zm-767.6,109.16,190.94,14.66,126.29-140.28-190.93-14.64Zm558.92-125.17,190.93,14.64L3522.63,1578l-190.93-14.66Zm-767.6,109.15,190.94,14.67L2755,1687.11l-190.93-14.65Zm558.92-125.17,190.93,14.65L3314,1561.94,3123,1547.27Zm-208.69-16L2979,1686.18l126.29-140.26-190.92-14.66Zm-208.68-16,190.94,14.65,126.29-140.26-190.93-14.67Z"/><path class="cls-8" d="M-125.43,1102,4674,1462.78,4602,2579.32s-4579.73-.78-4609.72-20.2S-125.43,1102-125.43,1102Z"/><path class="cls-9" d="M362.71,1937.62l344.35,111.94,447.35,519.74L-99.26,2816.83-679,2143.3Z"/><path class="cls-10" d="M363.32,1929.42l344.35,111.94L1155,2561.1-98.65,2808.63l-579.72-673.54Z"/><path class="cls-11" d="M255.09,2634.86c8.54-1.62,11.11-8.05,5.73-14.36l-402-471.88c-5.37-6.3-16.65-10.1-25.18-8.48s-11.11,8.05-5.74,14.35l402,471.88C235.27,2632.68,246.56,2636.48,255.09,2634.86Z"/><path class="cls-11" d="M57.13,2674c8.53-1.62,11.1-8.06,5.73-14.36l-402-471.88c-5.37-6.31-16.66-10.11-25.19-8.49s-11.1,8.05-5.73,14.36l402,471.88C37.31,2671.76,48.6,2675.57,57.13,2674Z"/><polygon class="cls-12" points="380.12 2055.23 438.86 2124.2 15.28 2204.61 -43.47 2135.64 380.12 2055.23"/><polygon class="cls-12" points="335.51 2180.39 394.26 2249.36 100.85 2305.06 42.1 2236.09 335.51 2180.39"/><polygon class="cls-12" points="314.56 2301.07 373.31 2370.03 186.42 2405.51 127.67 2336.54 314.56 2301.07"/><polygon class="cls-12" points="521.27 2378.52 580.02 2447.49 271.99 2505.96 213.24 2437 521.27 2378.52"/><polygon class="cls-12" points="742.6 2453.21 801.35 2522.18 357.55 2606.42 298.81 2537.45 742.6 2453.21"/><ellipse class="cls-13" cx="-47.67" cy="2409.9" rx="34.99" ry="60.36" transform="translate(-2338.14 1659.14) rotate(-72.99)"/><ellipse class="cls-13" cx="40.15" cy="2512.99" rx="34.99" ry="60.36" transform="translate(-2374.6 1816.04) rotate(-72.99)"/><polygon class="cls-11" points="982.86 2509.21 728.54 2213.73 706.08 2218.17 960.4 2513.65 982.86 2509.21"/><polygon class="cls-11" points="930.13 2519.62 675.81 2224.14 653.35 2228.58 907.67 2524.06 930.13 2519.62"/><path class="cls-14" d="M707.67,2041.36l-229.79,52.72L355.2,1927.67Z"/><path class="cls-10" d="M707.67,2041.36,497.54,2087.6,355.2,1927.67Z"/><path class="cls-9" d="M3829.31,1652.76l-431,140.1-559.88,650.48,1569,309.79,725.55-842.95Z"/><path class="cls-10" d="M3828.55,1642.5l-431,140.09-559.88,650.48,1569,309.8,725.55-843Z"/><path class="cls-11" d="M3964,2525.39c-10.68-2-13.9-10.08-7.17-18l503.07-590.58c6.72-7.89,20.84-12.65,31.52-10.62s13.9,10.07,7.18,18l-503.08,590.59C3988.81,2522.66,3974.69,2527.42,3964,2525.39Z"/><path class="cls-11" d="M4211.77,2574.31c-10.68-2-13.9-10.08-7.17-18l503.07-590.58c6.72-7.89,20.84-12.65,31.52-10.62s13.9,10.07,7.18,18L4243.3,2563.68C4236.57,2571.58,4222.45,2576.34,4211.77,2574.31Z"/><polygon class="cls-12" points="3807.54 1799.96 3734.01 1886.28 4264.14 1986.91 4337.67 1900.59 3807.54 1799.96"/><polygon class="cls-12" points="3863.36 1956.61 3789.84 2042.92 4157.05 2112.63 4230.58 2026.31 3863.36 1956.61"/><polygon class="cls-12" points="3889.58 2107.63 3816.05 2193.95 4049.96 2238.35 4123.49 2152.03 3889.58 2107.63"/><polygon class="cls-12" points="3630.87 2204.57 3557.35 2290.89 3942.86 2364.07 4016.39 2277.75 3630.87 2204.57"/><polygon class="cls-12" points="3353.87 2298.04 3280.34 2384.36 3835.77 2489.79 3909.3 2403.47 3353.87 2298.04"/><ellipse class="cls-13" cx="4557.21" cy="1992.28" rx="75.54" ry="43.8" transform="translate(-383.51 1420.72) rotate(-17.01)"/><ellipse class="cls-13" cx="4450.08" cy="2118.05" rx="75.54" ry="43.8" transform="translate(-425 1394.88) rotate(-17.01)"/><ellipse class="cls-13" cx="4342.93" cy="2243.84" rx="75.54" ry="43.8" transform="translate(-466.5 1369.03) rotate(-17.01)"/><ellipse class="cls-13" cx="4233.02" cy="2372.87" rx="75.54" ry="43.8" transform="translate(-509.06 1342.52) rotate(-17.01)"/><ellipse class="cls-13" cx="4480.79" cy="2421.78" rx="75.54" ry="43.8" transform="translate(-512.53 1417.16) rotate(-17.01)"/><ellipse class="cls-13" cx="4123.11" cy="2501.89" rx="75.54" ry="43.8" transform="translate(-551.63 1316) rotate(-17.01)"/><polygon class="cls-11" points="3053.17 2368.14 3371.46 1998.33 3399.58 2003.88 3081.28 2373.69 3053.17 2368.14"/><polygon class="cls-11" points="3119.16 2381.17 3437.46 2011.36 3465.57 2016.91 3147.28 2386.72 3119.16 2381.17"/><path class="cls-14" d="M3397.59,1782.59l287.59,66,153.54-208.28Z"/><path class="cls-10" d="M3397.59,1782.59l263,57.88,178.15-200.17Z"/><ellipse class="cls-15" cx="911.62" cy="2430.46" rx="446.77" ry="25.12" transform="translate(-729.22 419.03) rotate(-18.65)"/><path class="cls-11" d="M476.05,2502.86l699.5-244.23,134.71-19.08a12,12,0,0,1,7.79,22.2L1210.47,2326l-555,198.62Z"/><path class="cls-16" d="M1321,2243.59a11.83,11.83,0,0,1,2.23,3.86,12,12,0,0,1-5.17,14.3L1210.48,2326l-555,198.63-73.25-8.87,611.29-211c2.81-14.8-10.72-31.69-10.72-31.69,12.6,8.49,19.85,24.81,19.85,24.81s51.08-18,81.18-32.09A232.19,232.19,0,0,0,1321,2243.59Z"/><path class="cls-17" d="M2873.65,1494.76l-415.73,400-642.53,131,253.87-459.41Z"/><path class="cls-18" d="M2873.65,1494.76l-403.06,346.55-414.25-2.14,12.92-272.9Z"/><path class="cls-19" d="M2068.08,1566.67l428.21-808.26,128.82,937.45Z"/><path class="cls-20" d="M2068.08,1566.67v0l516.85-163.24,40.18,292.4Z"/><path class="cls-21" d="M2496.29,758.41l128.82,937.45,248.54-201.1Z"/><path class="cls-22" d="M2623.73,1685.87l20.81-57.63-31.17-17.78-15.09-109.72,136.54-276.89,32.69,63.77-123,340.62,37.59,21.46-57,46.16Zm-19-715.9,78.57,153.32L2576.89,1345,2538,1062C2561.9,1029,2584.66,997.59,2604.72,970Z"/><path class="cls-23" d="M4180.72,1915.53l-881.41,848L1937.06,3041.15l538.25-974Z"/><path class="cls-24" d="M4180.72,1915.53l-854.55,734.73-878.26-4.55,27.4-578.58Z"/><path class="cls-19" d="M2472.8,2068,3380.65,354.37l273.12,1987.5Z"/><path class="cls-20" d="M2472.8,2068v.06L3568.59,1722l85.18,619.91Z"/><path class="cls-21" d="M3380.65,354.37l273.12,1987.5,527-426.34Z"/><path class="cls-25" d="M3650.84,2320.7,3695,2198.51l-66.09-37.7-32-232.61,289.49-587,69.29,135.18L3695,2198.51l79.69,45.51-120.89,97.85Zm-40.3-1517.79L3777.11,1128l-225.58,470-82.4-599.92C3519.77,928,3568,861.46,3610.54,802.91Z"/><path class="cls-26" d="M2330.24,1950.69,1023,2078.51l65,41.56,1428.85,486.45ZM2181.9,2075.64l-628.9,67,715.84,238.43Z"/><path class="cls-27" d="M2373.42,1933.25,1019.22,2058.2l3.88,18.93,1537,511.94ZM2225.08,2058.2l-628.89,67L2312,2363.64Z"/><path class="cls-28" d="M2368.24,1913.44,1017.91,2057.32l1537,511.95Zm-148.34,125-628.9,67,715.84,238.43Z"/><path class="cls-29" d="M2375.07,1937.43l-6.83-24L1017.91,2057.32l56.23,18.72Z"/><path class="cls-28" d="M1161.9,2047.41l-2.9.31,4,14.07,2.89-.31Zm503.78-53.67-2.88.3,4,14.07,2.89-.31Zm646.12-68.85-2.89.31,4,14.07,2.9-.31Zm-213.32,22.73-2.9.31,4,14.06,2.89-.3Zm-504.64,53.77-2.89.31,4,14.06,2.9-.31ZM2240,1932.55l-2.89.31,4,14.06,2.9-.31Zm-213.32,22.73-2.9.31,4,14.06,2.89-.31ZM1522,2009.05l-2.89.31,4,14.06,2.9-.31Zm432.79-46.12-2.89.31,4,14.06,2.88-.3Zm-504.63,53.77-2.89.31,4,14.06,2.9-.31ZM1883,1970.59l-2.89.31,4,14.06,2.88-.31Zm-504.63,53.77-2.89.3,4,14.07,2.9-.31Zm432.79-46.12-2.9.31,4,14.06,2.9-.31ZM1306.47,2032l-2.88.31,4,14.06,2.88-.31Zm432.8-46.11-2.9.31,4,14.06,2.9-.31Zm-504.64,53.77-2.88.3,4,14.06,2.88-.3Zm935.69-99.7-2.9.31,4,14.06,2.89-.31Zm155.13-16.53-2.88.31,2.4,8.46,2.89-.31ZM1191,2044.31l-2.9.31,2.41,8.46,2.9-.31Zm504.62-53.76-2.88.3,2.41,8.46,2.88-.3Zm-432.78,46.11-2.9.31,2.41,8.46,2.9-.31Zm504.62-53.77-2.88.31,2.41,8.46,2.88-.31ZM1334.68,2029l-2.9.3,2.41,8.46,2.9-.3Zm504.64-53.77-2.9.31,2.41,8.46,2.89-.31Zm-432.8,46.11-2.9.31,2.41,8.46,2.9-.31Zm504.64-53.77-2.9.31,2.41,8.46,2.89-.31Zm-432.8,46.12-2.9.31,2.41,8.46,2.9-.31ZM1983,1959.93l-2.9.31,2.41,8.46,2.89-.31Zm213.32-22.73-2.9.31,2.41,8.46,2.9-.31ZM1550.2,2006l-2.88.31,2.4,8.46,2.89-.31Zm504.63-53.77-2.89.31,2.41,8.46,2.89-.31Zm213.33-22.72-2.9.3,2.41,8.46,2.89-.31Zm-646.11,68.84-2.89.31,2.4,8.46,2.9-.31Zm504.62-53.77-2.89.31,2.4,8.46,2.9-.31ZM2340,1921.89l-2.89.31,2.41,8.46,2.88-.31ZM1205.53,2042.77l-2.88.3,2.41,8.46,2.88-.3ZM1710.17,1989l-2.88.3,2.41,8.46,2.88-.3Zm-432.78,46.11-2.9.31,2.41,8.46,2.9-.31ZM1782,1981.34l-2.88.31,2.41,8.46,2.88-.31Zm-432.78,46.12-2.9.3,2.41,8.46,2.9-.3Zm504.62-53.77-2.88.31,2.41,8.46,2.88-.31Zm258.28-27.52-2.89.31,2.41,8.46,2.88-.31ZM1925.7,1966l-2.89.31,2.4,8.46,2.9-.31Zm-432.79,46.12-2.9.31,2.41,8.46,2.89-.31Zm504.63-53.77-2.89.31,2.4,8.46,2.9-.31Zm213.33-22.73-2.9.31,2.41,8.46,2.89-.31Zm-646.12,68.84-2.9.31,2.41,8.46,2.89-.31Zm504.63-53.77-2.89.31,2.4,8.46,2.9-.31ZM2282.71,1928l-2.9.31,2.41,8.46,2.89-.31Zm-646.12,68.85-2.89.31,2.41,8.45,2.88-.3Zm504.63-53.77-2.89.31,2.4,8.46,2.9-.31Zm-921.14,98.15-2.88.3,2.41,8.46,2.88-.3Zm504.64-53.77-2.9.31,2.41,8.46,2.9-.31Zm-432.8,46.11-2.88.31,2.41,8.46,2.88-.31Zm504.64-53.77-2.88.31,2.4,8.46,2.89-.31Zm-432.78,46.12-2.9.3,2.41,8.46,2.89-.3Zm504.62-53.77-2.88.31,2.4,8.46,2.89-.31Zm-432.78,46.11-2.9.31,2.41,8.46,2.89-.31Zm504.62-53.77-2.88.31,2.4,8.46,2.88-.31Zm-432.79,46.12-2.89.31,2.41,8.46,2.89-.31Zm504.64-53.77-2.9.31,2.41,8.46,2.9-.31Zm213.32-22.73-2.89.31,2.41,8.46,2.89-.31Zm-646.12,68.84-2.89.31,2.41,8.46,2.89-.31Zm504.64-53.77-2.9.31,2.41,8.46,2.9-.31Zm213.32-22.73-2.89.31,2.41,8.46,2.89-.31Zm-646.12,68.85-2.88.3,2.41,8.46,2.88-.3Zm504.64-53.77-2.9.31,2.41,8.46,2.9-.31Zm-548.27,58.42-2.89.31,2.4,8.46,2.9-.31Zm646.11-68.84-2.88.3,2.4,8.46,2.89-.3Zm-213.32,22.72-2.9.31,2.41,8.46,2.89-.31Zm-504.64,53.77-2.88.31,2.41,8.46,2.88-.31Zm646.12-68.84-2.9.31,2.41,8.46,2.9-.31Zm-213.32,22.73-2.9.31,2.41,8.46,2.89-.31Zm-504.64,53.77-2.88.3,2.41,8.46,2.88-.3Zm432.8-46.12-2.9.31,2.41,8.46,2.89-.31ZM1392,2022.9l-2.9.31,2.41,8.46,2.9-.31Zm432.8-46.11-2.9.31,2.41,8.46,2.9-.31Zm-504.64,53.77-2.9.3,2.41,8.46,2.9-.3Zm432.8-46.12-2.9.31,2.41,8.46,2.9-.31Zm-504.64,53.77-2.9.31,2.41,8.46,2.9-.31Zm432.78-46.11-2.88.31,2.41,8.45,2.88-.3Zm-504.62,53.76-2.9.31,2.41,8.46,2.9-.31Zm244.62-26.06-2.9.31,2.41,8.46,2.89-.31Z"/><path class="cls-30" d="M577,1933l-889.42,640.94,286,54.86,807.75-687.52-1.29-13Z"/><path class="cls-31" d="M575.82,1919.1-313.6,2560l286,54.86,807.74-687.52Z"/><polygon class="cls-32" points="-81.62 2612.72 726.12 1925.2 780.11 1927.38 -27.64 2614.9 -81.62 2612.72"/><polygon class="cls-33" points="-72.62 2613.08 735.12 1925.56 780.11 1927.38 -27.64 2614.9 -72.62 2613.08"/><path class="cls-34" d="M-53.73,2602.57l-1.93,1.65,26.5,1.07,1.93-1.64Zm336.06-286-1.92,1.64,26.5,1.07,1.92-1.64Zm431-366.86-1.93,1.64,26.5,1.07,1.93-1.64Zm-142.3,121.12-1.94,1.64,26.5,1.08,1.94-1.65ZM234.41,2357.32l-1.93,1.65L259,2360l1.93-1.65Zm431-366.86-1.94,1.64,26.5,1.07,1.94-1.64ZM523.12,2111.58l-1.93,1.64,26.5,1.08,1.93-1.65ZM186.49,2398.11l-1.93,1.65,26.49,1.07,1.94-1.65Zm288.7-245.73-1.92,1.63,26.5,1.08,1.92-1.64ZM138.57,2438.9l-1.94,1.65,26.5,1.07,1.93-1.65Zm288.7-245.73-1.92,1.63,26.49,1.08,1.93-1.64ZM90.64,2479.69l-1.93,1.65,26.5,1.07,1.93-1.65ZM379.34,2234l-1.93,1.64,26.5,1.08,1.93-1.65ZM42.71,2520.49l-1.92,1.64,26.5,1.07,1.92-1.64Zm288.71-245.74-1.93,1.64,26.5,1.08,1.93-1.65ZM-5.21,2561.28l-1.93,1.64,26.5,1.07,1.93-1.64ZM619,2030l-1.93,1.64,26.5,1.08,1.93-1.65Zm103.48-88.08-1.92,1.63,15.94.65,1.92-1.64ZM-34.32,2586.05l-1.93,1.65,15.94.64,1.93-1.64Zm336.63-286.52-1.93,1.64,15.95.64,1.92-1.63ZM13.6,2545.26l-1.93,1.65,15.94.64,1.94-1.64Zm336.63-286.52-1.92,1.64,15.94.64,1.92-1.63ZM61.53,2504.47l-1.94,1.65,16,.64,1.93-1.64Zm336.63-286.53-1.93,1.65,15.94.64,1.93-1.64ZM109.45,2463.68l-1.93,1.65,15.94.64,1.93-1.64Zm336.64-286.53-1.94,1.65,15.94.64,1.94-1.64ZM157.37,2422.89l-1.93,1.65,15.94.64,1.94-1.64ZM494,2136.36l-1.93,1.65,15.94.64L510,2137Zm142.3-121.12-1.93,1.64,15.94.65,1.93-1.65Zm-431,366.86-1.93,1.64,15.95.64,1.92-1.63Zm336.63-286.53-1.93,1.65,15.94.64,1.93-1.64Zm142.31-121.12-1.94,1.64,15.94.65,1.94-1.65Zm-431,366.85L251.3,2343l15.94.64,1.93-1.64Zm336.62-286.52-1.93,1.65,15.94.64,1.94-1.64Zm142.31-121.12-1.92,1.63,15.94.65,1.92-1.64ZM-24.62,2577.8l-1.93,1.64,16,.64,1.92-1.63ZM312,2291.27l-1.92,1.64,15.94.64,1.92-1.63ZM23.31,2537l-1.93,1.65,15.94.64,1.93-1.64Zm336.62-286.52-1.92,1.64,15.94.64,1.93-1.63ZM71.23,2496.21l-1.93,1.65,15.94.64,1.93-1.64Zm336.63-286.52-1.92,1.64,15.94.64,1.92-1.63ZM580.15,2063l-1.92,1.64,15.94.64,1.92-1.63ZM455.79,2168.89l-1.93,1.65,15.94.64,1.93-1.64ZM167.08,2414.63l-1.93,1.65,15.94.64,1.93-1.64ZM503.71,2128.1l-1.93,1.65,15.94.64,1.94-1.64ZM646,2007l-1.94,1.64,15.95.65,1.93-1.65ZM215,2373.84l-1.93,1.65,15.94.64,1.93-1.64Zm336.64-286.53L549.7,2089l15.95.64,1.93-1.64Zm142.3-121.12-1.93,1.64,15.94.65,1.93-1.65Zm-431,366.86-1.92,1.64,15.94.64,1.93-1.63Zm336.64-286.53-1.93,1.65,15.94.64,1.93-1.64Zm-614.48,523-1.92,1.64,15.94.64L1,2570.19ZM321.72,2283l-1.94,1.64,16,.65,1.93-1.64ZM33,2528.75l-1.92,1.64L47,2531,49,2529.4Zm336.64-286.53-1.92,1.64,15.94.64,1.92-1.63ZM80.94,2488,79,2489.6l15.94.64,1.93-1.64Zm336.62-286.52-1.92,1.64,15.94.64,1.92-1.63Zm-288.7,245.73-1.93,1.65,15.94.64,1.93-1.64Zm336.63-286.52-1.93,1.64,15.95.64,1.92-1.63ZM176.78,2406.37l-1.93,1.65,15.94.64,1.94-1.64Zm336.64-286.53-1.93,1.65,15.94.64,1.93-1.64Zm142.3-121.12-1.93,1.64,15.94.65,1.93-1.65Zm-431,366.86-1.94,1.65,15.95.64,1.93-1.64Zm336.63-286.53-1.93,1.64,15.94.65,1.93-1.64Zm142.31-121.12-1.94,1.64,15.94.65,1.94-1.65Zm-431,366.86-1.92,1.64,15.94.64,1.92-1.63Zm336.63-286.53-1.93,1.64,15.94.65,1.94-1.64Zm-365.74,311.3-1.93,1.65,15.94.64,1.94-1.64Zm431-366.85-1.92,1.63,15.94.65,1.92-1.64Zm-142.3,121.12-1.94,1.65,16,.64,1.93-1.64ZM195.59,2390.36l-1.92,1.64,15.94.64,1.92-1.63Zm431-366.86-1.94,1.64,16,.65,1.93-1.65ZM484.3,2144.62l-1.93,1.65,15.94.64,1.94-1.64ZM147.67,2431.15l-1.92,1.64,15.94.64,1.92-1.63Zm288.71-245.74-1.93,1.65,15.94.64,1.93-1.64ZM99.75,2471.94l-1.94,1.65,15.94.64,1.94-1.64ZM388.46,2226.2l-1.94,1.65,16,.64,1.93-1.64ZM51.82,2512.73l-1.93,1.65,15.94.64,1.93-1.64ZM340.53,2267l-1.93,1.65,15.94.64,1.94-1.64ZM3.9,2553.52,2,2555.17l15.94.64,1.93-1.64Zm288.7-245.73-1.92,1.64,15.94.64,1.92-1.63ZM-44,2594.31-46,2596l16,.64,1.93-1.64Zm163.18-138.89-1.94,1.65,15.94.64,1.94-1.64Z"/><path class="cls-35" d="M-202.07,1328.26l.62-159.61,1142.77,95,.22,160.06L456.88,1890.26Z"/><path class="cls-36" d="M707.69,1245.5,941.26,1264l.28,159.67L459.48,1887.78l-2-177.71Z"/><path class="cls-19" d="M-202.07,1168.14l1143.61,95.43L456.88,1730.14Z"/><path class="cls-37" d="M1257.31,273.14s66.57,102.54-50.23,156.07-325.4-56.12-454.78,91.17c32.35-204.73,108.78-291.27,226.4-334.51,142.31-52.32,322.32-2.11,278.61,87.27"/><path class="cls-38" d="M1159.81,258.87c-83.26,18.56-122.31,107.89-117.36,183.66,16.49,1,32.72,2,48.48,2.48-7-66.76,13.06-148.81,68.88-186.14"/><path class="cls-38" d="M970.24,281.61c-72.75,27.37-81.79,95.4-98,167.13a321.6,321.6,0,0,1,43.64-7.21c-5.88-61.94,17.93-114.17,54.41-159.92"/><path class="cls-38" d="M1043.38,258.87c-15.09-37.87-42-52.18-71.41-70.42a341.67,341.67,0,0,0-58.87,29.22c43.74.27,89.4,20.69,130.28,41.2"/><path class="cls-38" d="M1509.3,784.85c7.73-46.17,7.22-95.26,2-142.7a571.26,571.26,0,0,0-33.74-139.69c-17-44.75-40.24-88-68.39-126.1-14.76-18.61-32.61-34.67-51.8-48.78a311.68,311.68,0,0,0-62.23-35.36c-43.92-19.29-91.55-30-139.53-33.44a455.55,455.55,0,0,0-143.51,12.28c-46.78,11.68-91.8,31.66-130.65,60.6A309.18,309.18,0,0,0,829,381.79a303.83,303.83,0,0,0-37.92,62,304.41,304.41,0,0,1,37-62.79A310.5,310.5,0,0,1,880,329.73c38.65-29.83,83.78-50.78,130.89-63.39A462.16,462.16,0,0,1,1156,251.49c48.78,2.71,97.48,12.75,142.87,31.78a322.34,322.34,0,0,1,64.77,35.39c20.13,14.29,39,30.72,54.85,50,30.23,39.54,54.12,82.61,72.55,128.47a586.67,586.67,0,0,1,37,142.93c6.16,49.12,7.76,98.38.23,148.51Z"/><path class="cls-37" d="M1618.85,327.9s-30.35,118.52,97.38,131.75,290.4-157.61,459.94-59.57C2080.24,216.48,1980.23,159,1855,155.79c-151.51-3.9-306.06,101.45-236.15,172.11"/><path class="cls-38" d="M2004,297.81c27.12-27.21,54.24-30.63,84.66-30.24a399.36,399.36,0,0,0-34.56-35.16c-27,12.18-50.1,31.85-50.1,65.4"/><path class="cls-38" d="M1674.06,307.54c16.22,57,45.92,100.35,55.26,152.84a183,183,0,0,0,32.5-2.91c5.12-64.53-59.49-102.68-87.76-149.93"/><path class="cls-38" d="M1811.57,288.06c14.12-72.92,91-109,160.77-108.37-33.72-14.39-69.15-21.49-106.85-23.43-55.55,18.56-96.83,69.26-112,134.09,33.46,42.23,66.46,91.68,74.14,148.38,18.77-6.91,38-14.85,57.64-22.84-8-50.92-37.17-95.06-73.69-127.83"/><path class="cls-38" d="M1848.71,284c59,14.8,84.34,61.84,88.83,111.52,16.82-6.05,33.85-11.55,51.1-15.89-22.29-56.94-46.33-114.29-139.93-95.63"/><path class="cls-38" d="M1395.92,765.35c-.1-46.78,4.58-92.47,13-138,8.54-45.31,21.26-90.08,40.33-132.35s44.86-82,79.6-113.22c17.23-15.68,36.76-28.77,57.09-39.6a423.09,423.09,0,0,1,63.29-27.37c43.36-15.13,88.38-24.6,133.71-30.15a736.82,736.82,0,0,1,136.72-3.95c45.46,3,90.92,10.35,134.11,25.25,21.53,7.48,42.51,17,61.41,29.79s35.62,29.25,46.07,49.63c-10.8-20.19-27.82-36.25-46.74-48.6s-40-21.46-61.51-28.52c-43.15-14-88.43-20.48-133.63-22.68a729.63,729.63,0,0,0-135.48,6.31c-44.78,6.31-89.1,16.48-131.4,32.08s-83,36.37-115.44,66.77c-32.63,30.4-56.87,69.06-74.51,110.19s-29.35,85-36.9,129.43-11.19,89.87-10.29,134.32Z"/><path class="cls-37" d="M1392.75,99s12.77,86.83-121.57,78.47C1071.58,165.08,1132-98.85,1087.69-227.82S929.37-381.13,929.37-381.13s348.29,36.5,476.15,209.28S1489.84,125,1392.75,99"/><path class="cls-38" d="M1112.9-43.14c2,19.88,4.41,39.6,7.78,58.62,36.23-14.22,128.68-38.68,247.52,17.87,7.93-99.8,42-159.35,55.38-179.31-5.63-8.51-11.56-17.12-18.06-25.9a289.07,289.07,0,0,0-22.08-26.09c-21.43,22.91-67.52,81.2-56.25,149-68.2-21.44-171.4-19.74-214.29,5.83"/><path class="cls-38" d="M1422,784.75c9.58-49.07,15.54-99.66,19.75-150s5.84-101.07,5.32-151.67c-1-101.23-12.18-202.45-35.26-301.06a1093.92,1093.92,0,0,0-46-144.59c-18.67-47.08-42.24-92.09-68.88-135.15l-20.82-31.77-22.83-30.36c-7.35-10.35-15.87-19.72-24.18-29.29-8.51-9.38-16.18-19.55-25.48-28.18l-26.95-26.82c-9.16-8.75-19.11-16.65-28.63-25l-14.43-12.39c-5-3.93-10.17-7.55-15.25-11.36l-30.65-22.54,31,22.05c5.14,3.72,10.41,7.26,15.45,11.14l14.65,12.17c9.66,8.21,19.75,16,29.08,24.6L1205.33-219c9.47,8.52,17.34,18.58,26,27.87,8.49,9.47,17.21,18.76,24.75,29l23.44,30.15L1301-100.32c27.46,42.87,51.94,87.84,71.52,135a1102.31,1102.31,0,0,1,48.69,145c24.87,99.06,37.77,201,40.41,303.11q2,76.62-2.94,153.21c-3.49,51.07-8.59,101.73-17.68,152.63Z"/><path class="cls-37" d="M1552,223.65s-12.77,86.81,121.57,78.46c199.6-12.43,139.18-276.36,183.49-405.34s158.32-153.31,158.32-153.31S1667.12-220,1539.26-47.26,1454.94,249.59,1552,223.65"/><path class="cls-38" d="M1557.63,181q120.93,13.49,216.92,76.94c19.53-21.27,32.28-48.77,40.92-79.69-87.78-11.32-168.72-33-257.84,2.75"/><path class="cls-38" d="M1606.14,73.93c78.73,0,157.41-7.72,221.92,40.66,2.07-15.39,3.7-31,5.12-46.75-72.64-29.63-160.51-44-227,6.09"/><path class="cls-38" d="M1604.09-111.72c-24.83,19.06-47,40.4-64.83,64.46-1.17,1.58-2.23,3.14-3.37,4.71,1.23,54.42,21.39,106.39,60.55,145.68,0-71.62.1-143.23,7.65-214.85"/><path class="cls-38" d="M1450.91,814.12c-1.1-50,.77-99.34,4-148.84s8.46-98.72,15.49-147.74,16-97.76,27-146a1452.16,1452.16,0,0,1,41-142.69,1012.15,1012.15,0,0,1,58.18-136.49c11-22.23,24-43.32,36.63-64.54L1654-3c6.78-10.36,14.93-19.72,22.32-29.62,30.89-38.5,65.31-74.51,104.88-104.11a554.52,554.52,0,0,1,128.7-71.66,553.64,553.64,0,0,0-127.22,73.59c-38.9,30.1-72.51,66.47-102.54,105.17-7.18,10-15.1,19.37-21.66,29.76L1638.38,31c-12.24,21.28-24.78,42.39-35.28,64.62A1001.63,1001.63,0,0,0,1547.62,232a1435.69,1435.69,0,0,0-38.37,142.22Q1494,446.29,1484.86,519.5c-12.07,97.4-17.75,196.17-14.56,293.78Z"/><path class="cls-37" d="M1325.57,633.07s42,129.54-121.28,112.5S859.66,614.11,706.84,716.33C913,497.31,1015,437.89,1198.62,460.85c169.8,21.23,155.63,142.46,127,172.22"/><path class="cls-38" d="M1108.11,456.87C1068.38,459,1031.61,467,995.05,482c63.9-3.87,144.18,9.52,186.6,59.17,0-45.91-38-65.83-73.54-84.29"/><path class="cls-38" d="M1014.26,529.6c-33.25,0-76.16-4.57-109.4,3.59-57.89,41.3-120.59,100.88-198,183.14,52.27-35,107.86-44.54,164.92-41.37,15.77-70.46,87.18-113.64,142.51-145.36"/><path class="cls-38" d="M928,681.69c27.67,4.86,55.54,11.66,83.41,19.13C1041.88,612.75,1138,577.65,1218,550.89c-113.15-24.33-239.68,32.43-290,130.8"/><path class="cls-38" d="M1420.54,816.36c-13.54-45.48-35.08-90.12-61.78-130.24-27-40.08-60.07-76.56-100.08-103.94a333.26,333.26,0,0,0-63.89-34.26,352,352,0,0,0-70.36-18.56c-48.31-6.51-97.85-3.17-145.73,7.4,47.49-12.13,97.13-17.21,146.36-12.23a358.08,358.08,0,0,1,72.27,16.55,341.76,341.76,0,0,1,66.73,33c42.1,26.83,77.5,63.3,106.64,103.71,29,40.79,52.35,84.94,68.51,133.27Z"/><ellipse class="cls-39" cx="1218.04" cy="1457.09" rx="475.47" ry="121.49" transform="matrix(0.98, -0.17, 0.17, 0.98, -233.87, 232.88)"/><ellipse class="cls-40" cx="1436.47" cy="1378.81" rx="240.46" ry="88.66" transform="translate(-171.61 204.66) rotate(-7.69)"/><path class="cls-28" d="M1153.52,803.69l114.75,560.68s168,110.56,410.46-8.9l62.65-545.73S1331.06,906.12,1153.52,803.69Z"/><path class="cls-41" d="M1362.56,850.3A747.8,747.8,0,0,1,1285,844c-2.18,5.45-4.54,10.68-7.12,15.64l-65.7-19.25c15.6,80.12,38.57,189.14,113.28,235.16,10.39,6.39,25.61,30.67,37.28,32.13,3.86.49-2.22-7.5-2.93-11.35-1.53-8.41-3.15-16.9-4.47-25.32-3.62-23.14-5.56-46.06-6.9-69.43C1345.46,949.67,1349.12,899.25,1362.56,850.3Zm349,219,29.81-259.57s-91,21.37-205.83,33.3c5,.15,10,.43,15,.86,1.4.12-2.59,7.74-2.81,8.89-1.38,7.32-1.12,16.81-.49,24.2,1.28,15,15,31.11,25,41.27C1634.32,981.55,1675.43,996.63,1711.57,1069.31Z"/><path class="cls-42" d="M1685.58,1295.86l-6.85,59.61c-242.49,119.46-410.46,8.9-410.46,8.9L1153.52,803.69c21.23,12.24,45.76,21.64,72.5,28.71,19.58,47.75,48.13,93.76,70.7,138.55,59,116.93,136.38,260.2,268.23,305.4C1604.51,1289.91,1644.89,1295.07,1685.58,1295.86Z"/><ellipse class="cls-13" cx="1461.54" cy="794.58" rx="306.4" ry="109.7"/><ellipse class="cls-43" cx="1462.35" cy="791.68" rx="281.08" ry="91.55"/><path class="cls-44" d="M1201.19,825.57c40.57-34.33,142.81-58.71,262.4-58.71,118.41,0,219.81,23.91,261.19,57.68-40.58,34.31-142.83,58.68-262.43,58.68C1344,883.22,1242.57,859.34,1201.19,825.57Z"/><path class="cls-37" d="M1662.48,537.65s-137.19,98.18-35.31,249.06,202.65,193.52,178.29,376c128.15-278.46,160.8-446.37,104.45-555.87s-197.3-151.94-247.43-69.21"/><path class="cls-38" d="M1712.87,550.89c-48.46,10.8-90.89,42.64-117.44,83.76-8,28.39-9,62.24,5,100.61,11.69-72.7,49.15-144.7,112.42-184.37"/><path class="cls-38" d="M1880.92,564.1c-39.6-14.27-82.66-13.22-129.23,16,61.78,0,123.48,6.27,165.69,43.13-2.29-5.58-4.73-11.07-7.47-16.37a217.73,217.73,0,0,0-29-42.76"/><path class="cls-38" d="M1829.31,872.11c0,46.4-18.41,86.64-45.42,125.65a237.49,237.49,0,0,1,21.12,64.18c15.19-61.69,28.69-123.77,24.3-189.83"/><path class="cls-38" d="M1790.49,658c-8.47,76.47-39.14,160.35-104.89,206.34,22.77,27.8,44.05,52.27,62.41,76.66,46.31-55.14,85.2-125.27,61.89-195.4,55.08,15.78,91,63.58,107.81,117.43a694.41,694.41,0,0,0,14.4-73.76C1905.35,726.86,1860.65,672,1790.49,658"/><path class="cls-38" d="M1828.22,815c-3.65-36.9-9.73-73.67-19.48-109.61-9.6-35.92-22.63-71.2-41.65-103.71-9.74-16.07-21-31.47-35.15-44.52-14-12.88-31.5-23.92-51.82-25.91-2.5-.22-5-.52-7.53-.64l-7.56.57c-5.11,0-9.84,2-14.77,3A133.66,133.66,0,0,0,1636.5,540c-4.14,2.63-8.64,4.9-12.47,7.92s-7.85,6-11.23,9.25l-10.17,9.68c-6.94,6.31-13.37,13.11-19.72,20a477.49,477.49,0,0,0-66.46,90.67c-12.24,21.95-34.6,87.42-43.18,111.18h19.67c7.33-20.54,28.11-83.71,38.36-102.93a462.13,462.13,0,0,1,62.37-89.08c6-6.83,12.11-13.57,18.7-19.85l9.68-9.63c3.22-3.2,6.65-5.66,10-8.56,13.53-10.82,30.2-17,46.91-15.33,16.8,1.18,32.57,10.32,45.76,22s24.43,26.16,34.14,41.44a375.74,375.74,0,0,1,24.82,48.69,509.07,509.07,0,0,1,18.11,51.91c10.39,35.26,17.22,71.58,21.65,108.18,8.79,73.24,7.71,147.67-1.1,221.08,10.41-73.21,13.15-147.74,5.93-221.62"/><path class="cls-37" d="M1460,456.25S1402.38,354.59,1289.19,413s-74.84,394.22,54,585.65c36.61-139.52,97.49-284.57,210.17-363.73s16-201.95-93.31-178.67"/><path class="cls-38" d="M1251.06,790.57a819.75,819.75,0,0,0,38.12,108.34c8.57-80.91,33.48-152.92,64.69-231.21-48.59,24.37-90.3,69.13-102.81,122.87"/><path class="cls-38" d="M1339.9,789.16c-19.83,53.05-26.16,106.7-28,156.88a580.65,580.65,0,0,0,31.22,52.61c7.48-28.47,16.12-57.11,25.86-85.4-11.91-41-30.18-81.71-29.1-124.09"/><path class="cls-38" d="M1421.79,502.22c-35.29-53.11-126.63-49.76-186.69-12.15-12.86,43.49-15.8,100.06-10,161.61,33.73-55.37,93.38-95.07,148.21-81.32,49.43,16.52,63.91,96.16,85,161.54a447.35,447.35,0,0,1,44.38-53.44c-11.51-66.56-38.4-126.58-80.83-176.24"/><path class="cls-38" d="M1483.66,451.19c-9.77,1.33-20.43,5.43-29.77,10.63-9.3,5.52-18.43,11.67-26.18,19.48-16,15.06-28.49,33.73-38.51,53.54L1382.05,550l-5.86,15.69-2.94,7.84-2.32,8.08-4.63,16.16c-2.73,10.87-4.71,21.94-7.11,32.91L1353.75,664a1335.64,1335.64,0,0,0-13,134.73c-1.87,45.1-1.92,90.4,2.35,135.41-5.08-44.93-5.84-90.28-4.77-135.49A1338.28,1338.28,0,0,1,1349,663.35l4.86-33.62c2.23-11.15,4-22.39,6.62-33.47l4.4-16.51,2.21-8.26,2.85-8.07,5.72-16.15,7.06-15.65c9.95-20.59,22.56-40.24,39.17-56.48,16.7-16.05,36.49-29.5,61-33.65Z"/></g></g></svg>